STARTFONT 2.1
COMMENT $Id: g0s16x20.bdf,v 1.2 1995/02/10 17:53:37 pierre Exp $
FONT -Lectra-Minitel-Medium-R-Normal--20-200-75-75-C-160-ISO2022-0S
SIZE 20 75 75
FONTBOUNDINGBOX 16 20 0 -2
STARTPROPERTIES 19
FONTNAME_REGISTRY ""
FOUNDRY "Lectra"
FAMILY_NAME "Minitel"
WEIGHT_NAME "Medium"
SLANT "R"
SETWIDTH_NAME "Normal"
ADD_STYLE_NAME ""
PIXEL_SIZE 20
POINT_SIZE 200
RESOLUTION_X 75
RESOLUTION_Y 75
SPACING "C"
AVERAGE_WIDTH 80
CHARSET_REGISTRY "ISO2022-0S"
CHARSET_ENCODING "1"
FONT_ASCENT 18
FONT_DESCENT 2
DEFAULT_CHAR 32
COPYRIGHT "Copyright 1991 Lectra-Systemes"
ENDPROPERTIES
CHARS 116
STARTCHAR C000
ENCODING 0
SWIDTH 666 0
DWIDTH 16 0
BBX 16 20 0 -2
BITMAP
0000
0000
0F00
0F00
30C0
30C0
3000
3000
3000
3000
FF00
FF00
3000
3000
3000
3000
FFC0
FFC0
0000
ffff
ENDCHAR
STARTCHAR C001
ENCODING 1
SWIDTH 666 0
DWIDTH 16 0
BBX 16 20 0 -2
BITMAP
0000
0000
0000
0000
0000
0000
0C00
0C00
3C00
3C00
FFFF
FFFF
3C00
3C00
0C00
0C00
0000
0000
0000
ffff
ENDCHAR
STARTCHAR C002
ENCODING 2
SWIDTH 666 0
DWIDTH 16 0
BBX 16 20 0 -2
BITMAP
0000
0000
00C0
00C0
03F0
03F0
0FFC
0FFC
00C0
00C0
00C0
00C0
00C0
00C0
00C0
00C0
00C0
00C0
00C0
ffff
ENDCHAR
STARTCHAR C003
ENCODING 3
SWIDTH 666 0
DWIDTH 16 0
BBX 16 20 0 -2
BITMAP
0000
0000
0000
0000
0000
0000
0030
0030
003C
003C
FFFF
FFFF
003C
003C
0030
0030
0000
0000
0000
ffff
ENDCHAR
STARTCHAR C004
ENCODING 4
SWIDTH 666 0
DWIDTH 16 0
BBX 16 20 0 -2
BITMAP
0000
0000
00C0
00C0
00C0
00C0
00C0
00C0
00C0
00C0
00C0
00C0
00C0
00C0
0FFC
0FFC
03F0
03F0
00C0
ffff
ENDCHAR
STARTCHAR C005
ENCODING 5
SWIDTH 666 0
DWIDTH 16 0
BBX 16 20 0 -2
BITMAP
3C00
3C00
C300
C300
C300
C300
3C00
3C00
0000
0000
0000
0000
0000
0000
0000
0000
0000
0000
0000
ffff
ENDCHAR
STARTCHAR C006
ENCODING 6
SWIDTH 666 0
DWIDTH 16 0
BBX 16 20 0 -2
BITMAP
0000
0000
0000
0000
0C00
0C00
0C00
0C00
FFC0
FFC0
0C00
0C00
0C00
0C00
FFC0
FFC0
0000
0000
0000
ffff
ENDCHAR
STARTCHAR C007
ENCODING 7
SWIDTH 666 0
DWIDTH 16 0
BBX 16 20 0 -2
BITMAP
0000
0000
0000
0000
00C0
00C0
0000
0000
3FFF
3FFF
0000
0000
00C0
00C0
0000
0000
0000
0000
0000
ffff
ENDCHAR
STARTCHAR C008
ENCODING 8
SWIDTH 666 0
DWIDTH 16 0
BBX 16 20 0 -2
BITMAP
0000
0000
C030
C030
C0C0
C0C0
C0C0
C0C0
C30C
C30C
C33C
C33C
0CCC
0CCC
0CFF
0CFF
300C
300C
0000
ffff
ENDCHAR
STARTCHAR C009
ENCODING 9
SWIDTH 666 0
DWIDTH 16 0
BBX 16 20 0 -2
BITMAP
0000
0000
C030
C030
C0C0
C0C0
C0C0
C0C0
C33C
C33C
C3C3
C3C3
0C0F
0C0F
0C30
0C30
30FF
30FF
0000
ffff
ENDCHAR
STARTCHAR C010
ENCODING 10
SWIDTH 666 0
DWIDTH 16 0
BBX 16 20 0 -2
BITMAP
0000
0000
FC0C
FC0C
0C30
0C30
3C30
3C30
0CCC
0CCC
FCFC
FCFC
03CC
03CC
03FF
03FF
0C0C
0C0C
0000
ffff
ENDCHAR
STARTCHAR C011
ENCODING 11
SWIDTH 666 0
DWIDTH 16 0
BBX 16 20 0 -2
BITMAP
0000
0000
0F00
0F00
03C0
03C0
0000
0000
0000
0000
0000
0000
0000
0000
0000
0000
0000
0000
0000
ffff
ENDCHAR
STARTCHAR C012
ENCODING 12
SWIDTH 666 0
DWIDTH 16 0
BBX 16 20 0 -2
BITMAP
0000
0000
003C
003C
00F0
00F0
0000
0000
0000
0000
0000
0000
0000
0000
0000
0000
0000
0000
0000
ffff
ENDCHAR
STARTCHAR C013
ENCODING 13
SWIDTH 666 0
DWIDTH 16 0
BBX 16 20 0 -2
BITMAP
0000
0000
03F0
03F0
0F3C
0F3C
0000
0000
0000
0000
0000
0000
0000
0000
0000
0000
0000
0000
0000
ffff
ENDCHAR
STARTCHAR C014
ENCODING 14
SWIDTH 666 0
DWIDTH 16 0
BBX 16 20 0 -2
BITMAP
0000
0000
0F3C
0F3C
0000
0000
0000
0000
0000
0000
0000
0000
0000
0000
0000
0000
0000
0000
0000
ffff
ENDCHAR
STARTCHAR C015
ENCODING 15
SWIDTH 666 0
DWIDTH 16 0
BBX 16 20 0 -2
BITMAP
0000
0000
0000
0000
0000
0000
0000
0000
0000
0000
0000
0000
0000
0000
0000
0000
03C0
03C0
0FC0
ffff
ENDCHAR
STARTCHAR C016
ENCODING 16
SWIDTH 666 0
DWIDTH 16 0
BBX 16 20 0 -2
BITMAP
0000
0000
0FFF
0FFF
30C0
30C0
C0C0
C0C0
C0FC
C0FC
C0C0
C0C0
30C0
30C0
0FFF
0FFF
0000
0000
0000
ffff
ENDCHAR
STARTCHAR C017
ENCODING 17
SWIDTH 666 0
DWIDTH 16 0
BBX 16 20 0 -2
BITMAP
0000
0000
0000
0000
0000
0000
3F3F
3F3F
C0C3
C0C3
C0FF
C0FF
C0C0
C0C0
3F3F
3F3F
0000
0000
0000
ffff
ENDCHAR
STARTCHAR C018
ENCODING 18
SWIDTH 666 0
DWIDTH 16 0
BBX 16 20 0 -2
BITMAP
0000
0000
0F00
0F00
30C0
30C0
C0C0
C0C0
C300
C300
CF00
CF00
C0F0
C0F0
CC30
CC30
F3C0
F3C0
0000
ffff
ENDCHAR
STARTCHAR C019
ENCODING 19
SWIDTH 666 0
DWIDTH 16 0
BBX 16 20 0 -2
BITMAP
3F00
3F00
C0C0
C0C0
F000
F000
3F00
3F00
C0C0
C0C0
C0C0
C0C0
3F00
3F00
03C0
03C0
C0C0
C0C0
3F00
ffff
ENDCHAR
STARTCHAR C032
ENCODING 32
SWIDTH 666 0
DWIDTH 16 0
BBX 16 20 0 -2
BITMAP
0000
0000
0000
0000
0000
0000
0000
0000
0000
0000
0000
0000
0000
0000
0000
0000
0000
0000
0000
FFFF
ENDCHAR
STARTCHAR C033
ENCODING 33
SWIDTH 666 0
DWIDTH 16 0
BBX 16 20 0 -2
BITMAP
00C0
00C0
00C0
00C0
00C0
00C0
00C0
00C0
00C0
00C0
00C0
00C0
0000
0000
00C0
00C0
0000
0000
0000
FFFF
ENDCHAR
STARTCHAR C034
ENCODING 34
SWIDTH 666 0
DWIDTH 16 0
BBX 16 20 0 -2
BITMAP
0330
0330
0330
0330
0330
0330
0000
0000
0000
0000
0000
0000
0000
0000
0000
0000
0000
0000
0000
FFFF
ENDCHAR
STARTCHAR C035
ENCODING 35
SWIDTH 666 0
DWIDTH 16 0
BBX 16 20 0 -2
BITMAP
0C30
0C30
0C30
0C30
3FFC
3FFC
0C30
0C30
0C30
0C30
3FFC
3FFC
0C30
0C30
0C30
0C30
0000
0000
0000
FFFF
ENDCHAR
STARTCHAR C036
ENCODING 36
SWIDTH 666 0
DWIDTH 16 0
BBX 16 20 0 -2
BITMAP
0000
0000
00C0
00C0
03FC
03FC
0CC0
0CC0
03F0
03F0
00CC
00CC
0FF0
0FF0
00C0
00C0
0000
0000
0000
FFFF
ENDCHAR
STARTCHAR C037
ENCODING 37
SWIDTH 666 0
DWIDTH 16 0
BBX 16 20 0 -2
BITMAP
0000
0000
0C0C
0C0C
3330
3330
0C30
0C30
00C0
00C0
030C
030C
0333
0333
0C0C
0C0C
0000
0000
0000
FFFF
ENDCHAR
STARTCHAR C038
ENCODING 38
SWIDTH 666 0
DWIDTH 16 0
BBX 16 20 0 -2
BITMAP
0000
0000
0FC0
0FC0
3000
3000
0C00
0C00
0F00
0F00
30CC
30CC
3030
3030
0FCC
0FCC
0000
0000
0000
FFFF
ENDCHAR
STARTCHAR C039
ENCODING 39
SWIDTH 666 0
DWIDTH 16 0
BBX 16 20 0 -2
BITMAP
00F0
00F0
00C0
00C0
0300
0300
0000
0000
0000
0000
0000
0000
0000
0000
0000
0000
0000
0000
0000
FFFF
ENDCHAR
STARTCHAR C040
ENCODING 40
SWIDTH 666 0
DWIDTH 16 0
BBX 16 20 0 -2
BITMAP
0030
0030
00C0
00C0
00C0
00C0
0300
0300
0300
0300
0300
0300
00C0
00C0
00C0
00C0
0030
0030
0000
FFFF
ENDCHAR
STARTCHAR C041
ENCODING 41
SWIDTH 666 0
DWIDTH 16 0
BBX 16 20 0 -2
BITMAP
0300
0300
00C0
00C0
00C0
00C0
0030
0030
0030
0030
0030
0030
00C0
00C0
00C0
00C0
0300
0300
0000
FFFF
ENDCHAR
STARTCHAR C042
ENCODING 42
SWIDTH 666 0
DWIDTH 16 0
BBX 16 20 0 -2
BITMAP
0000
0000
00C0
00C0
00C0
00C0
3CCF
3CCF
03F0
03F0
00C0
00C0
0330
0330
0C0C
0C0C
0000
0000
0000
FFFF
ENDCHAR
STARTCHAR C043
ENCODING 43
SWIDTH 666 0
DWIDTH 16 0
BBX 16 20 0 -2
BITMAP
0000
0000
00C0
00C0
00C0
00C0
00C0
00C0
3FFF
3FFF
00C0
00C0
00C0
00C0
00C0
00C0
0000
0000
0000
FFFF
ENDCHAR
STARTCHAR C044
ENCODING 44
SWIDTH 666 0
DWIDTH 16 0
BBX 16 20 0 -2
BITMAP
0000
0000
0000
0000
0000
0000
0000
0000
0000
0000
0000
0000
03C0
03C0
0300
0300
0C00
0C00
0000
FFFF
ENDCHAR
STARTCHAR C045
ENCODING 45
SWIDTH 666 0
DWIDTH 16 0
BBX 16 20 0 -2
BITMAP
0000
0000
0000
0000
0000
0000
0000
0000
3FFF
3FFF
0000
0000
0000
0000
0000
0000
0000
0000
0000
FFFF
ENDCHAR
STARTCHAR C046
ENCODING 46
SWIDTH 666 0
DWIDTH 16 0
BBX 16 20 0 -2
BITMAP
0000
0000
0000
0000
0000
0000
0000
0000
0000
0000
0000
0000
03C0
03C0
03C0
03C0
0000
0000
0000
FFFF
ENDCHAR
STARTCHAR C047
ENCODING 47
SWIDTH 666 0
DWIDTH 16 0
BBX 16 20 0 -2
BITMAP
0003
0003
000C
000C
0030
0030
0030
0030
00C0
00C0
0300
0300
0C00
0C00
0C00
0C00
3000
3000
C000
FFFF
ENDCHAR
STARTCHAR C048
ENCODING 48
SWIDTH 666 0
DWIDTH 16 0
BBX 16 20 0 -2
BITMAP
0FF0
0FF0
300C
300C
300C
300C
300C
300C
300C
300C
300C
300C
300C
300C
0FF0
0FF0
0000
0000
0000
FFFF
ENDCHAR
STARTCHAR C049
ENCODING 49
SWIDTH 666 0
DWIDTH 16 0
BBX 16 20 0 -2
BITMAP
00C0
00C0
03C0
03C0
00C0
00C0
00C0
00C0
00C0
00C0
00C0
00C0
00C0
00C0
00C0
00C0
0000
0000
0000
FFFF
ENDCHAR
STARTCHAR C050
ENCODING 50
SWIDTH 666 0
DWIDTH 16 0
BBX 16 20 0 -2
BITMAP
0FF0
0FF0
300C
300C
000C
000C
0030
0030
00C0
00C0
0300
0300
0C00
0C00
3FFC
3FFC
0000
0000
0000
FFFF
ENDCHAR
STARTCHAR C051
ENCODING 51
SWIDTH 666 0
DWIDTH 16 0
BBX 16 20 0 -2
BITMAP
0FF0
0FF0
300C
300C
000C
000C
03F0
03F0
000C
000C
000C
000C
300C
300C
0FF0
0FF0
0000
0000
0000
FFFF
ENDCHAR
STARTCHAR C052
ENCODING 52
SWIDTH 666 0
DWIDTH 16 0
BBX 16 20 0 -2
BITMAP
00F0
00F0
00F0
00F0
0330
0330
0330
0330
0C30
0C30
3FFC
3FFC
0030
0030
00FC
00FC
0000
0000
0000
FFFF
ENDCHAR
STARTCHAR C053
ENCODING 53
SWIDTH 666 0
DWIDTH 16 0
BBX 16 20 0 -2
BITMAP
3FFC
3FFC
3000
3000
3000
3000
3FF0
3FF0
000C
000C
000C
000C
300C
300C
0FF0
0FF0
0000
0000
0000
FFFF
ENDCHAR
STARTCHAR C054
ENCODING 54
SWIDTH 666 0
DWIDTH 16 0
BBX 16 20 0 -2
BITMAP
03F0
03F0
0C00
0C00
3000
3000
3FF0
3FF0
300C
300C
300C
300C
300C
300C
0FF0
0FF0
0000
0000
0000
FFFF
ENDCHAR
STARTCHAR C055
ENCODING 55
SWIDTH 666 0
DWIDTH 16 0
BBX 16 20 0 -2
BITMAP
3FFC
3FFC
300C
300C
0030
0030
0030
0030
00C0
00C0
00C0
00C0
0300
0300
0300
0300
0000
0000
0000
FFFF
ENDCHAR
STARTCHAR C056
ENCODING 56
SWIDTH 666 0
DWIDTH 16 0
BBX 16 20 0 -2
BITMAP
0FF0
0FF0
300C
300C
300C
300C
0FF0
0FF0
300C
300C
300C
300C
300C
300C
0FF0
0FF0
0000
0000
0000
FFFF
ENDCHAR
STARTCHAR C057
ENCODING 57
SWIDTH 666 0
DWIDTH 16 0
BBX 16 20 0 -2
BITMAP
0FF0
0FF0
300C
300C
300C
300C
300C
300C
0FFC
0FFC
000C
000C
0030
0030
0FC0
0FC0
0000
0000
0000
FFFF
ENDCHAR
STARTCHAR C058
ENCODING 58
SWIDTH 666 0
DWIDTH 16 0
BBX 16 20 0 -2
BITMAP
0000
0000
0000
0000
03C0
03C0
03C0
03C0
0000
0000
0000
0000
03C0
03C0
03C0
03C0
0000
0000
0000
FFFF
ENDCHAR
STARTCHAR C059
ENCODING 59
SWIDTH 666 0
DWIDTH 16 0
BBX 16 20 0 -2
BITMAP
0000
0000
0000
0000
03C0
03C0
03C0
03C0
0000
0000
0000
0000
03C0
03C0
0300
0300
0C00
0C00
0000
FFFF
ENDCHAR
STARTCHAR C060
ENCODING 60
SWIDTH 666 0
DWIDTH 16 0
BBX 16 20 0 -2
BITMAP
0000
0000
0000
0000
003C
003C
03C0
03C0
3C00
3C00
03C0
03C0
003C
003C
0000
0000
0000
0000
0000
FFFF
ENDCHAR
STARTCHAR C061
ENCODING 61
SWIDTH 666 0
DWIDTH 16 0
BBX 16 20 0 -2
BITMAP
0000
0000
0000
0000
0000
0000
3FFF
3FFF
0000
0000
0000
0000
3FFF
3FFF
0000
0000
0000
0000
0000
FFFF
ENDCHAR
STARTCHAR C062
ENCODING 62
SWIDTH 666 0
DWIDTH 16 0
BBX 16 20 0 -2
BITMAP
0000
0000
0000
0000
3C00
3C00
03C0
03C0
003C
003C
03C0
03C0
3C00
3C00
0000
0000
0000
0000
0000
FFFF
ENDCHAR
STARTCHAR C063
ENCODING 63
SWIDTH 666 0
DWIDTH 16 0
BBX 16 20 0 -2
BITMAP
0FF0
0FF0
300C
300C
000C
000C
0030
0030
00C0
00C0
00C0
00C0
0000
0000
00C0
00C0
0000
0000
0000
FFFF
ENDCHAR
STARTCHAR C064
ENCODING 64
SWIDTH 666 0
DWIDTH 16 0
BBX 16 20 0 -2
BITMAP
0000
0000
03F0
03F0
0C0C
0C0C
30C3
30C3
3333
3333
30CC
30CC
0C00
0C00
03F0
03F0
0000
0000
0000
FFFF
ENDCHAR
STARTCHAR C065
ENCODING 65
SWIDTH 666 0
DWIDTH 16 0
BBX 16 20 0 -2
BITMAP
0000
0000
0ffc
1ffe
3003
3003
3003
3003
3fff
3fff
3003
3003
3003
3003
3003
3003
0000
0000
0000
FFFF
ENDCHAR
STARTCHAR C066
ENCODING 66
SWIDTH 666 0
DWIDTH 16 0
BBX 16 20 0 -2
BITMAP
0000
0000
3FFC
3FFC
3003
3003
3003
3003
3FFC
3FFC
3003
3003
3003
3003
3FFC
3FFC
0000
0000
0000
FFFF
ENDCHAR
STARTCHAR C067
ENCODING 67
SWIDTH 666 0
DWIDTH 16 0
BBX 16 20 0 -2
BITMAP
0000
0000
03FC
03FC
0C03
0C03
3000
3000
3000
3000
3000
3000
0C03
0C03
03FC
03FC
0000
0000
0000
FFFF
ENDCHAR
STARTCHAR C068
ENCODING 68
SWIDTH 666 0
DWIDTH 16 0
BBX 16 20 0 -2
BITMAP
0000
0000
3FF0
3FF0
300C
300C
3003
3003
3003
3003
3003
3003
300C
300C
3FF0
3FF0
0000
0000
0000
FFFF
ENDCHAR
STARTCHAR C069
ENCODING 69
SWIDTH 666 0
DWIDTH 16 0
BBX 16 20 0 -2
BITMAP
0000
0000
3FFF
3FFF
3000
3000
3000
3000
3FF0
3FF0
3000
3000
3000
3000
3FFF
3FFF
0000
0000
0000
FFFF
ENDCHAR
STARTCHAR C070
ENCODING 70
SWIDTH 666 0
DWIDTH 16 0
BBX 16 20 0 -2
BITMAP
0000
0000
3FFF
3FFF
3000
3000
3000
3000
3FF0
3FF0
3000
3000
3000
3000
3000
3000
0000
0000
0000
FFFF
ENDCHAR
STARTCHAR C071
ENCODING 71
SWIDTH 666 0
DWIDTH 16 0
BBX 16 20 0 -2
BITMAP
0000
0000
03FC
03FC
0C03
0C03
3000
3000
303F
303F
3003
3003
0C03
0C03
03FF
03FF
0000
0000
0000
FFFF
ENDCHAR
STARTCHAR C072
ENCODING 72
SWIDTH 666 0
DWIDTH 16 0
BBX 16 20 0 -2
BITMAP
0000
0000
3003
3003
3003
3003
3003
3003
3FFF
3FFF
3003
3003
3003
3003
3003
3003
0000
0000
0000
FFFF
ENDCHAR
STARTCHAR C073
ENCODING 73
SWIDTH 666 0
DWIDTH 16 0
BBX 16 20 0 -2
BITMAP
0000
0000
0FFC
0FFC
00C0
00C0
00C0
00C0
00C0
00C0
00C0
00C0
00C0
00C0
0FFC
0FFC
0000
0000
0000
FFFF
ENDCHAR
STARTCHAR C074
ENCODING 74
SWIDTH 666 0
DWIDTH 16 0
BBX 16 20 0 -2
BITMAP
0000
0000
00FC
00FC
000C
000C
000C
000C
000C
000C
300C
300C
300C
300C
0FF0
0FF0
0000
0000
0000
FFFF
ENDCHAR
STARTCHAR C075
ENCODING 75
SWIDTH 666 0
DWIDTH 16 0
BBX 16 20 0 -2
BITMAP
0000
0000
300C
300C
3030
3030
30C0
30C0
3F00
3F00
30C0
30C0
3030
3030
300C
300C
0000
0000
0000
FFFF
ENDCHAR
STARTCHAR C076
ENCODING 76
SWIDTH 666 0
DWIDTH 16 0
BBX 16 20 0 -2
BITMAP
0000
0000
3000
3000
3000
3000
3000
3000
3000
3000
3000
3000
3000
3000
3FFC
3FFC
0000
0000
0000
FFFF
ENDCHAR
STARTCHAR C077
ENCODING 77
SWIDTH 666 0
DWIDTH 16 0
BBX 16 20 0 -2
BITMAP
0000
0000
3003
3003
3C0F
3C0F
3333
3333
30C3
30C3
3003
3003
3003
3003
3003
3003
0000
0000
0000
FFFF
ENDCHAR
STARTCHAR C078
ENCODING 78
SWIDTH 666 0
DWIDTH 16 0
BBX 16 20 0 -2
BITMAP
0000
0000
3003
3003
3C03
3C03
3303
3303
30C3
30C3
3033
3033
300F
300F
3003
3003
0000
0000
0000
FFFF
ENDCHAR
STARTCHAR C079
ENCODING 79
SWIDTH 666 0
DWIDTH 16 0
BBX 16 20 0 -2
BITMAP
0000
0000
03F0
03F0
0C0C
0C0C
3003
3003
3003
3003
3003
3003
0C0C
0C0C
03F0
03F0
0000
0000
0000
FFFF
ENDCHAR
STARTCHAR C080
ENCODING 80
SWIDTH 666 0
DWIDTH 16 0
BBX 16 20 0 -2
BITMAP
0000
0000
3FFC
3FFC
3003
3003
3003
3003
3FFC
3FFC
3000
3000
3000
3000
3000
3000
0000
0000
0000
FFFF
ENDCHAR
STARTCHAR C081
ENCODING 81
SWIDTH 666 0
DWIDTH 16 0
BBX 16 20 0 -2
BITMAP
0000
0000
03F0
03F0
0C0C
0C0C
3003
3003
3003
3003
3003
3003
0C0C
0C0C
03F0
03F0
003F
003F
0000
FFFF
ENDCHAR
STARTCHAR C082
ENCODING 82
SWIDTH 666 0
DWIDTH 16 0
BBX 16 20 0 -2
BITMAP
0000
0000
3FFC
3FFC
3003
3003
3003
3003
3FFC
3FFC
3030
3030
300C
300C
3003
3003
0000
0000
0000
FFFF
ENDCHAR
STARTCHAR C083
ENCODING 83
SWIDTH 666 0
DWIDTH 16 0
BBX 16 20 0 -2
BITMAP
0000
0000
0FFC
0FFC
3003
3003
3000
3000
0FFC
0FFC
0003
0003
3003
3003
0FFC
0FFC
0000
0000
0000
FFFF
ENDCHAR
STARTCHAR C084
ENCODING 84
SWIDTH 666 0
DWIDTH 16 0
BBX 16 20 0 -2
BITMAP
0000
0000
3FFF
3FFF
00C0
00C0
00C0
00C0
00C0
00C0
00C0
00C0
00C0
00C0
00C0
00C0
0000
0000
0000
FFFF
ENDCHAR
STARTCHAR C085
ENCODING 85
SWIDTH 666 0
DWIDTH 16 0
BBX 16 20 0 -2
BITMAP
0000
0000
3003
3003
3003
3003
3003
3003
3003
3003
3003
3003
3003
3003
0FFC
0FFC
0000
0000
0000
FFFF
ENDCHAR
STARTCHAR C086
ENCODING 86
SWIDTH 666 0
DWIDTH 16 0
BBX 16 20 0 -2
BITMAP
0000
0000
3C0F
3C0F
0C0C
0C0C
0C0C
0C0C
0330
0330
0330
0330
00C0
00C0
00C0
00C0
0000
0000
0000
FFFF
ENDCHAR
STARTCHAR C087
ENCODING 87
SWIDTH 666 0
DWIDTH 16 0
BBX 16 20 0 -2
BITMAP
0000
0000
3003
3003
3003
3003
3003
3003
30C3
30C3
3333
3333
3C0F
3C0F
3003
3003
0000
0000
0000
FFFF
ENDCHAR
STARTCHAR C088
ENCODING 88
SWIDTH 666 0
DWIDTH 16 0
BBX 16 20 0 -2
BITMAP
0000
0000
3003
3003
0C0C
0C0C
0330
0330
00C0
00C0
0330
0330
0C0C
0C0C
3003
3003
0000
0000
0000
FFFF
ENDCHAR
STARTCHAR C089
ENCODING 89
SWIDTH 666 0
DWIDTH 16 0
BBX 16 20 0 -2
BITMAP
0000
0000
3003
3003
0C0C
0C0C
0330
0330
00C0
00C0
00C0
00C0
00C0
00C0
00C0
00C0
0000
0000
0000
FFFF
ENDCHAR
STARTCHAR C090
ENCODING 90
SWIDTH 666 0
DWIDTH 16 0
BBX 16 20 0 -2
BITMAP
0000
0000
3FFF
3FFF
000C
000C
0030
0030
00C0
00C0
0300
0300
0C00
0C00
3FFF
3FFF
0000
0000
0000
FFFF
ENDCHAR
STARTCHAR C091
ENCODING 91
SWIDTH 666 0
DWIDTH 16 0
BBX 16 20 0 -2
BITMAP
00FC
00FC
00C0
00C0
00C0
00C0
00C0
00C0
00C0
00C0
00C0
00C0
00C0
00C0
00C0
00C0
00FC
00FC
0000
FFFF
ENDCHAR
STARTCHAR C092
ENCODING 92
SWIDTH 666 0
DWIDTH 16 0
BBX 16 20 0 -2
BITMAP
C000
C000
3000
3000
0C00
0C00
0C00
0C00
0300
0300
00C0
00C0
0030
0030
0030
0030
000C
000C
0003
FFFF
ENDCHAR
STARTCHAR C093
ENCODING 93
SWIDTH 666 0
DWIDTH 16 0
BBX 16 20 0 -2
BITMAP
0FC0
0FC0
00C0
00C0
00C0
00C0
00C0
00C0
00C0
00C0
00C0
00C0
00C0
00C0
00C0
00C0
0FC0
0FC0
0000
FFFF
ENDCHAR
STARTCHAR C094
ENCODING 94
SWIDTH 666 0
DWIDTH 16 0
BBX 16 20 0 -2
BITMAP
00C0
00C0
0330
0330
0C0C
0C0C
0000
0000
0000
0000
0000
0000
0000
0000
0000
0000
0000
0000
0000
FFFF
ENDCHAR
STARTCHAR C095
ENCODING 95
SWIDTH 666 0
DWIDTH 16 0
BBX 16 20 0 -2
BITMAP
0000
0000
0000
0000
0000
0000
0000
0000
0000
0000
0000
0000
0000
0000
0000
0000
0000
0000
0000
FFFF
ENDCHAR
STARTCHAR C096
ENCODING 96
SWIDTH 666 0
DWIDTH 16 0
BBX 16 20 0 -2
BITMAP
0000
0000
0000
0000
0000
0000
0000
0000
0000
0000
FFFF
FFFF
0000
0000
0000
0000
0000
0000
0000
FFFF
ENDCHAR
STARTCHAR C097
ENCODING 97
SWIDTH 666 0
DWIDTH 16 0
BBX 16 20 0 -2
BITMAP
0000
0000
0000
0000
0000
0000
0FFF
0FFF
3003
3003
3003
3003
300F
300F
0FF3
0FF3
0000
0000
0000
FFFF
ENDCHAR
STARTCHAR C098
ENCODING 98
SWIDTH 666 0
DWIDTH 16 0
BBX 16 20 0 -2
BITMAP
3000
3000
3000
3000
3000
3000
3FFC
3FFC
3003
3003
3003
3003
3003
3003
3FFC
3FFC
0000
0000
0000
FFFF
ENDCHAR
STARTCHAR C099
ENCODING 99
SWIDTH 666 0
DWIDTH 16 0
BBX 16 20 0 -2
BITMAP
0000
0000
0000
0000
0000
0000
0FFC
0FFC
3000
3000
3000
3000
3000
3000
0FFC
0FFC
0000
0000
0000
FFFF
ENDCHAR
STARTCHAR C100
ENCODING 100
SWIDTH 666 0
DWIDTH 16 0
BBX 16 20 0 -2
BITMAP
0003
0003
0003
0003
0003
0003
0FFF
0FFF
3003
3003
3003
3003
3003
3003
0FFF
0FFF
0000
0000
0000
FFFF
ENDCHAR
STARTCHAR C101
ENCODING 101
SWIDTH 666 0
DWIDTH 16 0
BBX 16 20 0 -2
BITMAP
0000
0000
0000
0000
0000
0000
0FFC
0FFC
3003
3003
3FFF
3FFF
3000
3000
0FFC
0FFC
0000
0000
0000
FFFF
ENDCHAR
STARTCHAR C102
ENCODING 102
SWIDTH 666 0
DWIDTH 16 0
BBX 16 20 0 -2
BITMAP
03FC
03FC
0C00
0C00
0C00
0C00
3FC0
3FC0
0C00
0C00
0C00
0C00
0C00
0C00
0C00
0C00
0000
0000
0000
FFFF
ENDCHAR
STARTCHAR C103
ENCODING 103
SWIDTH 666 0
DWIDTH 16 0
BBX 16 20 0 -2
BITMAP
0000
0000
0000
0000
0000
0000
0FFF
0FFF
3003
3003
3003
3003
3003
3003
0FFF
0FFF
0003
0003
0FFC
FFFF
ENDCHAR
STARTCHAR C104
ENCODING 104
SWIDTH 666 0
DWIDTH 16 0
BBX 16 20 0 -2
BITMAP
3000
3000
3000
3000
3000
3000
3FFC
3FFC
3003
3003
3003
3003
3003
3003
3003
3003
0000
0000
0000
FFFF
ENDCHAR
STARTCHAR C105
ENCODING 105
SWIDTH 666 0
DWIDTH 16 0
BBX 16 20 0 -2
BITMAP
00C0
00C0
00C0
00C0
0000
0000
0FC0
0FC0
00C0
00C0
00C0
00C0
00C0
00C0
0FFC
0FFC
0000
0000
0000
FFFF
ENDCHAR
STARTCHAR C106
ENCODING 106
SWIDTH 666 0
DWIDTH 16 0
BBX 16 20 0 -2
BITMAP
000C
000C
000C
000C
0000
0000
03FC
03FC
000C
000C
000C
000C
000C
000C
000C
000C
000C
000C
0FF0
FFFF
ENDCHAR
STARTCHAR C107
ENCODING 107
SWIDTH 666 0
DWIDTH 16 0
BBX 16 20 0 -2
BITMAP
3000
3000
3000
3000
3000
3000
303C
303C
30C0
30C0
3F00
3F00
30C0
30C0
303C
303C
0000
0000
0000
FFFF
ENDCHAR
STARTCHAR C108
ENCODING 108
SWIDTH 666 0
DWIDTH 16 0
BBX 16 20 0 -2
BITMAP
03C0
03C0
00C0
00C0
00C0
00C0
00C0
00C0
00C0
00C0
00C0
00C0
00C0
00C0
03F0
03F0
0000
0000
0000
FFFF
ENDCHAR
STARTCHAR C109
ENCODING 109
SWIDTH 666 0
DWIDTH 16 0
BBX 16 20 0 -2
BITMAP
0000
0000
0000
0000
0000
0000
3F3C
3F3C
30C3
30C3
30C3
30C3
30C3
30C3
3003
3003
0000
0000
0000
FFFF
ENDCHAR
STARTCHAR C110
ENCODING 110
SWIDTH 666 0
DWIDTH 16 0
BBX 16 20 0 -2
BITMAP
0000
0000
0000
0000
0000
0000
33FC
33FC
3C03
3C03
3003
3003
3003
3003
3003
3003
0000
0000
0000
FFFF
ENDCHAR
STARTCHAR C111
ENCODING 111
SWIDTH 666 0
DWIDTH 16 0
BBX 16 20 0 -2
BITMAP
0000
0000
0000
0000
0000
0000
0FFC
0FFC
3003
3003
3003
3003
3003
3003
0FFC
0FFC
0000
0000
0000
FFFF
ENDCHAR
STARTCHAR C112
ENCODING 112
SWIDTH 666 0
DWIDTH 16 0
BBX 16 20 0 -2
BITMAP
0000
0000
0000
0000
0000
0000
3FFC
3FFC
3003
3003
3003
3003
3003
3003
3FFC
3FFC
3000
3000
3000
FFFF
ENDCHAR
STARTCHAR C113
ENCODING 113
SWIDTH 666 0
DWIDTH 16 0
BBX 16 20 0 -2
BITMAP
0000
0000
0000
0000
0000
0000
0FFF
0FFF
3003
3003
3003
3003
3003
3003
0FFF
0FFF
0003
0003
0003
FFFF
ENDCHAR
STARTCHAR C114
ENCODING 114
SWIDTH 666 0
DWIDTH 16 0
BBX 16 20 0 -2
BITMAP
0000
0000
0000
0000
0000
0000
0CFC
0CFC
0F00
0F00
0C00
0C00
0C00
0C00
0C00
0C00
0000
0000
0000
FFFF
ENDCHAR
STARTCHAR C115
ENCODING 115
SWIDTH 666 0
DWIDTH 16 0
BBX 16 20 0 -2
BITMAP
0000
0000
0000
0000
0000
0000
0FFC
0FFC
3000
3000
0FF0
0FF0
000C
000C
3FF0
3FF0
0000
0000
0000
FFFF
ENDCHAR
STARTCHAR C116
ENCODING 116
SWIDTH 666 0
DWIDTH 16 0
BBX 16 20 0 -2
BITMAP
0300
0300
0300
0300
0300
0300
3FFC
3FFC
0300
0300
0300
0300
0300
0300
00FC
00FC
0000
0000
0000
FFFF
ENDCHAR
STARTCHAR C117
ENCODING 117
SWIDTH 666 0
DWIDTH 16 0
BBX 16 20 0 -2
BITMAP
0000
0000
0000
0000
0000
0000
3003
3003
3003
3003
3003
3003
300F
300F
0FF3
0FF3
0000
0000
0000
FFFF
ENDCHAR
STARTCHAR C118
ENCODING 118
SWIDTH 666 0
DWIDTH 16 0
BBX 16 20 0 -2
BITMAP
0000
0000
0000
0000
0000
0000
3C0F
3C0F
0C0C
0C0C
0330
0330
0330
0330
00C0
00C0
0000
0000
0000
FFFF
ENDCHAR
STARTCHAR C119
ENCODING 119
SWIDTH 666 0
DWIDTH 16 0
BBX 16 20 0 -2
BITMAP
0000
0000
0000
0000
0000
0000
3003
3003
30C3
30C3
30C3
30C3
30C3
30C3
0F3C
0F3C
0000
0000
0000
FFFF
ENDCHAR
STARTCHAR C120
ENCODING 120
SWIDTH 666 0
DWIDTH 16 0
BBX 16 20 0 -2
BITMAP
0000
0000
0000
0000
0000
0000
3C0F
3C0F
0330
0330
00C0
00C0
0330
0330
3C0F
3C0F
0000
0000
0000
FFFF
ENDCHAR
STARTCHAR C121
ENCODING 121
SWIDTH 666 0
DWIDTH 16 0
BBX 16 20 0 -2
BITMAP
0000
0000
0000
0000
0000
0000
300C
300C
300C
300C
300C
300C
300C
300C
0FFC
0FFC
000C
000C
0FF0
FFFF
ENDCHAR
STARTCHAR C122
ENCODING 122
SWIDTH 666 0
DWIDTH 16 0
BBX 16 20 0 -2
BITMAP
0000
0000
0000
0000
0000
0000
3FFC
3FFC
0030
0030
03C0
03C0
0C00
0C00
3FFC
3FFC
0000
0000
0000
FFFF
ENDCHAR
STARTCHAR C123
ENCODING 123
SWIDTH 666 0
DWIDTH 16 0
BBX 16 20 0 -2
BITMAP
C000
C000
C000
C000
C000
C000
C000
C000
C000
C000
C000
C000
C000
C000
C000
C000
C000
C000
C000
FFFF
ENDCHAR
STARTCHAR C124
ENCODING 124
SWIDTH 666 0
DWIDTH 16 0
BBX 16 20 0 -2
BITMAP
00C0
00C0
00C0
00C0
00C0
00C0
00C0
00C0
00C0
00C0
00C0
00C0
00C0
00C0
00C0
00C0
00C0
00C0
00C0
FFFF
ENDCHAR
STARTCHAR C125
ENCODING 125
SWIDTH 666 0
DWIDTH 16 0
BBX 16 20 0 -2
BITMAP
0003
0003
0003
0003
0003
0003
0003
0003
0003
0003
0003
0003
0003
0003
0003
0003
0003
0003
0003
FFFF
ENDCHAR
STARTCHAR C126
ENCODING 126
SWIDTH 666 0
DWIDTH 16 0
BBX 16 20 0 -2
BITMAP
FFFF
FFFF
0000
0000
0000
0000
0000
0000
0000
0000
0000
0000
0000
0000
0000
0000
0000
0000
0000
FFFF
ENDCHAR
STARTCHAR C127
ENCODING 127
SWIDTH 666 0
DWIDTH 16 0
BBX 16 20 0 -2
BITMAP
ffff
ffff
ffff
ffff
ffff
ffff
ffff
ffff
ffff
ffff
ffff
ffff
ffff
ffff
ffff
ffff
ffff
ffff
ffff
ffff
ENDCHAR
ENDFONT
























