STARTFONT 2.1
COMMENT $Id: g0s8x20.bdf,v 1.2 1995/02/10 17:53:37 pierre Exp $
FONT -Lectra-Minitel-Medium-R-Normal--20-200-75-75-C-80-ISO2022-0S
SIZE 20 75 75
FONTBOUNDINGBOX 8 20 0 -2
STARTPROPERTIES 19
FONTNAME_REGISTRY ""
FOUNDRY "Lectra"
FAMILY_NAME "Minitel"
WEIGHT_NAME "Medium"
SLANT "R"
SETWIDTH_NAME "Normal"
ADD_STYLE_NAME ""
PIXEL_SIZE 20
POINT_SIZE 200
RESOLUTION_X 75
RESOLUTION_Y 75
SPACING "C"
AVERAGE_WIDTH 80
CHARSET_REGISTRY "ISO2022-0S"
CHARSET_ENCODING "1"
FONT_ASCENT 18
FONT_DESCENT 2
DEFAULT_CHAR 32
COPYRIGHT "Copyright 1991 Lectra-Systemes"
ENDPROPERTIES
CHARS 116
STARTCHAR C000
ENCODING 0
SWIDTH 666 0
DWIDTH 8 0
BBX 8 20 0 -2
BITMAP
00
00
30
30
48
48
40
40
40
40
F0
F0
40
40
40
40
F8
F8
00
ff
ENDCHAR
STARTCHAR C001
ENCODING 1
SWIDTH 666 0
DWIDTH 8 0
BBX 8 20 0 -2
BITMAP
00
00
00
00
00
00
20
20
60
60
FF
FF
60
60
20
20
00
00
00
ff
ENDCHAR
STARTCHAR C002
ENCODING 2
SWIDTH 666 0
DWIDTH 8 0
BBX 8 20 0 -2
BITMAP
00
00
08
08
1C
1C
3E
3E
08
08
08
08
08
08
08
08
08
08
08
ff
ENDCHAR
STARTCHAR C003
ENCODING 3
SWIDTH 666 0
DWIDTH 8 0
BBX 8 20 0 -2
BITMAP
00
00
00
00
00
00
04
04
06
06
FF
FF
06
06
04
04
00
00
00
ff
ENDCHAR
STARTCHAR C004
ENCODING 4
SWIDTH 666 0
DWIDTH 8 0
BBX 8 20 0 -2
BITMAP
00
00
08
08
08
08
08
08
08
08
08
08
08
08
3E
3E
1C
1C
08
ff
ENDCHAR
STARTCHAR C005
ENCODING 5
SWIDTH 666 0
DWIDTH 8 0
BBX 8 20 0 -2
BITMAP
60
60
90
90
90
90
60
60
00
00
00
00
00
00
00
00
00
00
00
ff
ENDCHAR
STARTCHAR C006
ENCODING 6
SWIDTH 666 0
DWIDTH 8 0
BBX 8 20 0 -2
BITMAP
00
00
00
00
20
20
20
20
F8
F8
20
20
20
20
F8
F8
00
00
00
ff
ENDCHAR
STARTCHAR C007
ENCODING 7
SWIDTH 666 0
DWIDTH 8 0
BBX 8 20 0 -2
BITMAP
00
00
00
00
08
08
00
00
7F
7F
00
00
08
08
00
00
00
00
00
ff
ENDCHAR
STARTCHAR C008
ENCODING 8
SWIDTH 666 0
DWIDTH 8 0
BBX 8 20 0 -2
BITMAP
00
00
84
84
88
88
88
88
92
92
96
96
2A
2A
2F
2F
42
42
00
ff
ENDCHAR
STARTCHAR C009
ENCODING 9
SWIDTH 666 0
DWIDTH 8 0
BBX 8 20 0 -2
BITMAP
00
00
84
84
88
88
88
88
96
96
99
99
23
23
24
24
4F
4F
00
ff
ENDCHAR
STARTCHAR C010
ENCODING 10
SWIDTH 666 0
DWIDTH 8 0
BBX 8 20 0 -2
BITMAP
00
00
E2
E2
24
24
64
64
2A
2A
EE
EE
1A
1A
1F
1F
22
22
00
ff
ENDCHAR
STARTCHAR C011
ENCODING 11
SWIDTH 666 0
DWIDTH 8 0
BBX 8 20 0 -2
BITMAP
00
00
30
30
18
18
00
00
00
00
00
00
00
00
00
00
00
00
00
ff
ENDCHAR
STARTCHAR C012
ENCODING 12
SWIDTH 666 0
DWIDTH 8 0
BBX 8 20 0 -2
BITMAP
00
00
06
06
0C
0C
00
00
00
00
00
00
00
00
00
00
00
00
00
ff
ENDCHAR
STARTCHAR C013
ENCODING 13
SWIDTH 666 0
DWIDTH 8 0
BBX 8 20 0 -2
BITMAP
00
00
1C
1C
36
36
00
00
00
00
00
00
00
00
00
00
00
00
00
ff
ENDCHAR
STARTCHAR C014
ENCODING 14
SWIDTH 666 0
DWIDTH 8 0
BBX 8 20 0 -2
BITMAP
00
00
36
36
00
00
00
00
00
00
00
00
00
00
00
00
00
00
00
ff
ENDCHAR
STARTCHAR C015
ENCODING 15
SWIDTH 666 0
DWIDTH 8 0
BBX 8 20 0 -2
BITMAP
00
00
00
00
00
00
00
00
00
00
00
00
00
00
00
00
18
18
38
ff
ENDCHAR
STARTCHAR C016
ENCODING 16
SWIDTH 666 0
DWIDTH 8 0
BBX 8 20 0 -2
BITMAP
00
00
3F
3F
48
48
88
88
8E
8E
88
88
48
48
3F
3F
00
00
00
ff
ENDCHAR
STARTCHAR C017
ENCODING 17
SWIDTH 666 0
DWIDTH 8 0
BBX 8 20 0 -2
BITMAP
00
00
00
00
00
00
77
77
89
89
8F
8F
88
88
77
77
00
00
00
ff
ENDCHAR
STARTCHAR C018
ENCODING 18
SWIDTH 666 0
DWIDTH 8 0
BBX 8 20 0 -2
BITMAP
00
00
30
30
48
48
88
88
90
90
B0
B0
8C
8C
A4
A4
D8
D8
00
ff
ENDCHAR
STARTCHAR C019
ENCODING 19
SWIDTH 666 0
DWIDTH 8 0
BBX 8 20 0 -2
BITMAP
70
70
88
88
C0
C0
70
70
88
88
88
88
70
70
18
18
88
88
70
ff
ENDCHAR
STARTCHAR C032
ENCODING 32
SWIDTH 666 0
DWIDTH 8 0
BBX 8 20 0 -2
BITMAP
00
00
00
00
00
00
00
00
00
00
00
00
00
00
00
00
00
00
00
FF
ENDCHAR
STARTCHAR C033
ENCODING 33
SWIDTH 666 0
DWIDTH 8 0
BBX 8 20 0 -2
BITMAP
08
08
08
08
08
08
08
08
08
08
08
08
00
00
08
08
00
00
00
FF
ENDCHAR
STARTCHAR C034
ENCODING 34
SWIDTH 666 0
DWIDTH 8 0
BBX 8 20 0 -2
BITMAP
14
14
14
14
14
14
00
00
00
00
00
00
00
00
00
00
00
00
00
FF
ENDCHAR
STARTCHAR C035
ENCODING 35
SWIDTH 666 0
DWIDTH 8 0
BBX 8 20 0 -2
BITMAP
24
24
24
24
7E
7E
24
24
24
24
7E
7E
24
24
24
24
00
00
00
FF
ENDCHAR
STARTCHAR C036
ENCODING 36
SWIDTH 666 0
DWIDTH 8 0
BBX 8 20 0 -2
BITMAP
00
00
08
08
1E
1E
28
28
1C
1C
0A
0A
3C
3C
08
08
00
00
00
FF
ENDCHAR
STARTCHAR C037
ENCODING 37
SWIDTH 666 0
DWIDTH 8 0
BBX 8 20 0 -2
BITMAP
00
00
22
22
54
54
24
24
08
08
12
12
15
15
22
22
00
00
00
FF
ENDCHAR
STARTCHAR C038
ENCODING 38
SWIDTH 666 0
DWIDTH 8 0
BBX 8 20 0 -2
BITMAP
00
00
38
38
40
40
20
20
30
30
4A
4A
44
44
3A
3A
00
00
00
FF
ENDCHAR
STARTCHAR C039
ENCODING 39
SWIDTH 666 0
DWIDTH 8 0
BBX 8 20 0 -2
BITMAP
0C
0C
08
08
10
10
00
00
00
00
00
00
00
00
00
00
00
00
00
FF
ENDCHAR
STARTCHAR C040
ENCODING 40
SWIDTH 666 0
DWIDTH 8 0
BBX 8 20 0 -2
BITMAP
04
04
08
08
08
08
10
10
10
10
10
10
08
08
08
08
04
04
00
FF
ENDCHAR
STARTCHAR C041
ENCODING 41
SWIDTH 666 0
DWIDTH 8 0
BBX 8 20 0 -2
BITMAP
10
10
08
08
08
08
04
04
04
04
04
04
08
08
08
08
10
10
00
FF
ENDCHAR
STARTCHAR C042
ENCODING 42
SWIDTH 666 0
DWIDTH 8 0
BBX 8 20 0 -2
BITMAP
00
00
08
08
08
08
6B
6B
1C
1C
08
08
14
14
22
22
00
00
00
FF
ENDCHAR
STARTCHAR C043
ENCODING 43
SWIDTH 666 0
DWIDTH 8 0
BBX 8 20 0 -2
BITMAP
00
00
08
08
08
08
08
08
7F
7F
08
08
08
08
08
08
00
00
00
FF
ENDCHAR
STARTCHAR C044
ENCODING 44
SWIDTH 666 0
DWIDTH 8 0
BBX 8 20 0 -2
BITMAP
00
00
00
00
00
00
00
00
00
00
00
00
18
18
10
10
20
20
00
FF
ENDCHAR
STARTCHAR C045
ENCODING 45
SWIDTH 666 0
DWIDTH 8 0
BBX 8 20 0 -2
BITMAP
00
00
00
00
00
00
00
00
7F
7F
00
00
00
00
00
00
00
00
00
FF
ENDCHAR
STARTCHAR C046
ENCODING 46
SWIDTH 666 0
DWIDTH 8 0
BBX 8 20 0 -2
BITMAP
00
00
00
00
00
00
00
00
00
00
00
00
18
18
18
18
00
00
00
FF
ENDCHAR
STARTCHAR C047
ENCODING 47
SWIDTH 666 0
DWIDTH 8 0
BBX 8 20 0 -2
BITMAP
01
01
02
02
04
04
04
04
08
08
10
10
20
20
20
20
40
40
80
FF
ENDCHAR
STARTCHAR C048
ENCODING 48
SWIDTH 666 0
DWIDTH 8 0
BBX 8 20 0 -2
BITMAP
3C
3C
42
42
42
42
42
42
42
42
42
42
42
42
3C
3C
00
00
00
FF
ENDCHAR
STARTCHAR C049
ENCODING 49
SWIDTH 666 0
DWIDTH 8 0
BBX 8 20 0 -2
BITMAP
08
08
18
18
08
08
08
08
08
08
08
08
08
08
08
08
00
00
00
FF
ENDCHAR
STARTCHAR C050
ENCODING 50
SWIDTH 666 0
DWIDTH 8 0
BBX 8 20 0 -2
BITMAP
3C
3C
42
42
02
02
04
04
08
08
10
10
20
20
7E
7E
00
00
00
FF
ENDCHAR
STARTCHAR C051
ENCODING 51
SWIDTH 666 0
DWIDTH 8 0
BBX 8 20 0 -2
BITMAP
3C
3C
42
42
02
02
1C
1C
02
02
02
02
42
42
3C
3C
00
00
00
FF
ENDCHAR
STARTCHAR C052
ENCODING 52
SWIDTH 666 0
DWIDTH 8 0
BBX 8 20 0 -2
BITMAP
0C
0C
0C
0C
14
14
14
14
24
24
7E
7E
04
04
0E
0E
00
00
00
FF
ENDCHAR
STARTCHAR C053
ENCODING 53
SWIDTH 666 0
DWIDTH 8 0
BBX 8 20 0 -2
BITMAP
7E
7E
40
40
40
40
7C
7C
02
02
02
02
42
42
3C
3C
00
00
00
FF
ENDCHAR
STARTCHAR C054
ENCODING 54
SWIDTH 666 0
DWIDTH 8 0
BBX 8 20 0 -2
BITMAP
1C
1C
20
20
40
40
7C
7C
42
42
42
42
42
42
3C
3C
00
00
00
FF
ENDCHAR
STARTCHAR C055
ENCODING 55
SWIDTH 666 0
DWIDTH 8 0
BBX 8 20 0 -2
BITMAP
7E
7E
42
42
04
04
04
04
08
08
08
08
10
10
10
10
00
00
00
FF
ENDCHAR
STARTCHAR C056
ENCODING 56
SWIDTH 666 0
DWIDTH 8 0
BBX 8 20 0 -2
BITMAP
3C
3C
42
42
42
42
3C
3C
42
42
42
42
42
42
3C
3C
00
00
00
FF
ENDCHAR
STARTCHAR C057
ENCODING 57
SWIDTH 666 0
DWIDTH 8 0
BBX 8 20 0 -2
BITMAP
3C
3C
42
42
42
42
42
42
3E
3E
02
02
04
04
38
38
00
00
00
FF
ENDCHAR
STARTCHAR C058
ENCODING 58
SWIDTH 666 0
DWIDTH 8 0
BBX 8 20 0 -2
BITMAP
00
00
00
00
18
18
18
18
00
00
00
00
18
18
18
18
00
00
00
FF
ENDCHAR
STARTCHAR C059
ENCODING 59
SWIDTH 666 0
DWIDTH 8 0
BBX 8 20 0 -2
BITMAP
00
00
00
00
18
18
18
18
00
00
00
00
18
18
10
10
20
20
00
FF
ENDCHAR
STARTCHAR C060
ENCODING 60
SWIDTH 666 0
DWIDTH 8 0
BBX 8 20 0 -2
BITMAP
00
00
00
00
06
06
18
18
60
60
18
18
06
06
00
00
00
00
00
FF
ENDCHAR
STARTCHAR C061
ENCODING 61
SWIDTH 666 0
DWIDTH 8 0
BBX 8 20 0 -2
BITMAP
00
00
00
00
00
00
7F
7F
00
00
00
00
7F
7F
00
00
00
00
00
FF
ENDCHAR
STARTCHAR C062
ENCODING 62
SWIDTH 666 0
DWIDTH 8 0
BBX 8 20 0 -2
BITMAP
00
00
00
00
60
60
18
18
06
06
18
18
60
60
00
00
00
00
00
FF
ENDCHAR
STARTCHAR C063
ENCODING 63
SWIDTH 666 0
DWIDTH 8 0
BBX 8 20 0 -2
BITMAP
3C
3C
42
42
02
02
04
04
08
08
08
08
00
00
08
08
00
00
00
FF
ENDCHAR
STARTCHAR C064
ENCODING 64
SWIDTH 666 0
DWIDTH 8 0
BBX 8 20 0 -2
BITMAP
00
00
1C
1C
22
22
49
49
55
55
4A
4A
20
20
1C
1C
00
00
00
FF
ENDCHAR
STARTCHAR C065
ENCODING 65
SWIDTH 666 0
DWIDTH 8 0
BBX 8 20 0 -2
BITMAP
00
00
3e
7f
41
41
41
41
7f
7f
41
41
41
41
41
41
00
00
00
FF
ENDCHAR
STARTCHAR C066
ENCODING 66
SWIDTH 666 0
DWIDTH 8 0
BBX 8 20 0 -2
BITMAP
00
00
7E
7E
41
41
41
41
7E
7E
41
41
41
41
7E
7E
00
00
00
FF
ENDCHAR
STARTCHAR C067
ENCODING 67
SWIDTH 666 0
DWIDTH 8 0
BBX 8 20 0 -2
BITMAP
00
00
1E
1E
21
21
40
40
40
40
40
40
21
21
1E
1E
00
00
00
FF
ENDCHAR
STARTCHAR C068
ENCODING 68
SWIDTH 666 0
DWIDTH 8 0
BBX 8 20 0 -2
BITMAP
00
00
7C
7C
42
42
41
41
41
41
41
41
42
42
7C
7C
00
00
00
FF
ENDCHAR
STARTCHAR C069
ENCODING 69
SWIDTH 666 0
DWIDTH 8 0
BBX 8 20 0 -2
BITMAP
00
00
7F
7F
40
40
40
40
7C
7C
40
40
40
40
7F
7F
00
00
00
FF
ENDCHAR
STARTCHAR C070
ENCODING 70
SWIDTH 666 0
DWIDTH 8 0
BBX 8 20 0 -2
BITMAP
00
00
7F
7F
40
40
40
40
7C
7C
40
40
40
40
40
40
00
00
00
FF
ENDCHAR
STARTCHAR C071
ENCODING 71
SWIDTH 666 0
DWIDTH 8 0
BBX 8 20 0 -2
BITMAP
00
00
1E
1E
21
21
40
40
47
47
41
41
21
21
1F
1F
00
00
00
FF
ENDCHAR
STARTCHAR C072
ENCODING 72
SWIDTH 666 0
DWIDTH 8 0
BBX 8 20 0 -2
BITMAP
00
00
41
41
41
41
41
41
7F
7F
41
41
41
41
41
41
00
00
00
FF
ENDCHAR
STARTCHAR C073
ENCODING 73
SWIDTH 666 0
DWIDTH 8 0
BBX 8 20 0 -2
BITMAP
00
00
3E
3E
08
08
08
08
08
08
08
08
08
08
3E
3E
00
00
00
FF
ENDCHAR
STARTCHAR C074
ENCODING 74
SWIDTH 666 0
DWIDTH 8 0
BBX 8 20 0 -2
BITMAP
00
00
0E
0E
02
02
02
02
02
02
42
42
42
42
3C
3C
00
00
00
FF
ENDCHAR
STARTCHAR C075
ENCODING 75
SWIDTH 666 0
DWIDTH 8 0
BBX 8 20 0 -2
BITMAP
00
00
42
42
44
44
48
48
70
70
48
48
44
44
42
42
00
00
00
FF
ENDCHAR
STARTCHAR C076
ENCODING 76
SWIDTH 666 0
DWIDTH 8 0
BBX 8 20 0 -2
BITMAP
00
00
40
40
40
40
40
40
40
40
40
40
40
40
7E
7E
00
00
00
FF
ENDCHAR
STARTCHAR C077
ENCODING 77
SWIDTH 666 0
DWIDTH 8 0
BBX 8 20 0 -2
BITMAP
00
00
41
41
63
63
55
55
49
49
41
41
41
41
41
41
00
00
00
FF
ENDCHAR
STARTCHAR C078
ENCODING 78
SWIDTH 666 0
DWIDTH 8 0
BBX 8 20 0 -2
BITMAP
00
00
41
41
61
61
51
51
49
49
45
45
43
43
41
41
00
00
00
FF
ENDCHAR
STARTCHAR C079
ENCODING 79
SWIDTH 666 0
DWIDTH 8 0
BBX 8 20 0 -2
BITMAP
00
00
1C
1C
22
22
41
41
41
41
41
41
22
22
1C
1C
00
00
00
FF
ENDCHAR
STARTCHAR C080
ENCODING 80
SWIDTH 666 0
DWIDTH 8 0
BBX 8 20 0 -2
BITMAP
00
00
7E
7E
41
41
41
41
7E
7E
40
40
40
40
40
40
00
00
00
FF
ENDCHAR
STARTCHAR C081
ENCODING 81
SWIDTH 666 0
DWIDTH 8 0
BBX 8 20 0 -2
BITMAP
00
00
1C
1C
22
22
41
41
41
41
41
41
22
22
1C
1C
07
07
00
FF
ENDCHAR
STARTCHAR C082
ENCODING 82
SWIDTH 666 0
DWIDTH 8 0
BBX 8 20 0 -2
BITMAP
00
00
7E
7E
41
41
41
41
7E
7E
44
44
42
42
41
41
00
00
00
FF
ENDCHAR
STARTCHAR C083
ENCODING 83
SWIDTH 666 0
DWIDTH 8 0
BBX 8 20 0 -2
BITMAP
00
00
3E
3E
41
41
40
40
3E
3E
01
01
41
41
3E
3E
00
00
00
FF
ENDCHAR
STARTCHAR C084
ENCODING 84
SWIDTH 666 0
DWIDTH 8 0
BBX 8 20 0 -2
BITMAP
00
00
7F
7F
08
08
08
08
08
08
08
08
08
08
08
08
00
00
00
FF
ENDCHAR
STARTCHAR C085
ENCODING 85
SWIDTH 666 0
DWIDTH 8 0
BBX 8 20 0 -2
BITMAP
00
00
41
41
41
41
41
41
41
41
41
41
41
41
3E
3E
00
00
00
FF
ENDCHAR
STARTCHAR C086
ENCODING 86
SWIDTH 666 0
DWIDTH 8 0
BBX 8 20 0 -2
BITMAP
00
00
63
63
22
22
22
22
14
14
14
14
08
08
08
08
00
00
00
FF
ENDCHAR
STARTCHAR C087
ENCODING 87
SWIDTH 666 0
DWIDTH 8 0
BBX 8 20 0 -2
BITMAP
00
00
41
41
41
41
41
41
49
49
55
55
63
63
41
41
00
00
00
FF
ENDCHAR
STARTCHAR C088
ENCODING 88
SWIDTH 666 0
DWIDTH 8 0
BBX 8 20 0 -2
BITMAP
00
00
41
41
22
22
14
14
08
08
14
14
22
22
41
41
00
00
00
FF
ENDCHAR
STARTCHAR C089
ENCODING 89
SWIDTH 666 0
DWIDTH 8 0
BBX 8 20 0 -2
BITMAP
00
00
41
41
22
22
14
14
08
08
08
08
08
08
08
08
00
00
00
FF
ENDCHAR
STARTCHAR C090
ENCODING 90
SWIDTH 666 0
DWIDTH 8 0
BBX 8 20 0 -2
BITMAP
00
00
7F
7F
02
02
04
04
08
08
10
10
20
20
7F
7F
00
00
00
FF
ENDCHAR
STARTCHAR C091
ENCODING 91
SWIDTH 666 0
DWIDTH 8 0
BBX 8 20 0 -2
BITMAP
0E
0E
08
08
08
08
08
08
08
08
08
08
08
08
08
08
0E
0E
00
FF
ENDCHAR
STARTCHAR C092
ENCODING 92
SWIDTH 666 0
DWIDTH 8 0
BBX 8 20 0 -2
BITMAP
80
80
40
40
20
20
20
20
10
10
08
08
04
04
04
04
02
02
01
FF
ENDCHAR
STARTCHAR C093
ENCODING 93
SWIDTH 666 0
DWIDTH 8 0
BBX 8 20 0 -2
BITMAP
38
38
08
08
08
08
08
08
08
08
08
08
08
08
08
08
38
38
00
FF
ENDCHAR
STARTCHAR C094
ENCODING 94
SWIDTH 666 0
DWIDTH 8 0
BBX 8 20 0 -2
BITMAP
08
08
14
14
22
22
00
00
00
00
00
00
00
00
00
00
00
00
00
FF
ENDCHAR
STARTCHAR C095
ENCODING 95
SWIDTH 666 0
DWIDTH 8 0
BBX 8 20 0 -2
BITMAP
00
00
00
00
00
00
00
00
00
00
00
00
00
00
00
00
00
00
FF
FF
ENDCHAR
STARTCHAR C096
ENCODING 96
SWIDTH 666 0
DWIDTH 8 0
BBX 8 20 0 -2
BITMAP
00
00
00
00
00
00
00
00
00
00
FF
FF
00
00
00
00
00
00
00
FF
ENDCHAR
STARTCHAR C097
ENCODING 97
SWIDTH 666 0
DWIDTH 8 0
BBX 8 20 0 -2
BITMAP
00
00
00
00
00
00
3F
3F
41
41
41
41
43
43
3D
3D
00
00
00
FF
ENDCHAR
STARTCHAR C098
ENCODING 98
SWIDTH 666 0
DWIDTH 8 0
BBX 8 20 0 -2
BITMAP
40
40
40
40
40
40
7E
7E
41
41
41
41
41
41
7E
7E
00
00
00
FF
ENDCHAR
STARTCHAR C099
ENCODING 99
SWIDTH 666 0
DWIDTH 8 0
BBX 8 20 0 -2
BITMAP
00
00
00
00
00
00
3E
3E
40
40
40
40
40
40
3E
3E
00
00
00
FF
ENDCHAR
STARTCHAR C100
ENCODING 100
SWIDTH 666 0
DWIDTH 8 0
BBX 8 20 0 -2
BITMAP
01
01
01
01
01
01
3F
3F
41
41
41
41
41
41
3F
3F
00
00
00
FF
ENDCHAR
STARTCHAR C101
ENCODING 101
SWIDTH 666 0
DWIDTH 8 0
BBX 8 20 0 -2
BITMAP
00
00
00
00
00
00
3E
3E
41
41
7F
7F
40
40
3E
3E
00
00
00
FF
ENDCHAR
STARTCHAR C102
ENCODING 102
SWIDTH 666 0
DWIDTH 8 0
BBX 8 20 0 -2
BITMAP
1E
1E
20
20
20
20
78
78
20
20
20
20
20
20
20
20
00
00
00
FF
ENDCHAR
STARTCHAR C103
ENCODING 103
SWIDTH 666 0
DWIDTH 8 0
BBX 8 20 0 -2
BITMAP
00
00
00
00
00
00
3F
3F
41
41
41
41
41
41
3F
3F
01
01
3E
FF
ENDCHAR
STARTCHAR C104
ENCODING 104
SWIDTH 666 0
DWIDTH 8 0
BBX 8 20 0 -2
BITMAP
40
40
40
40
40
40
7E
7E
41
41
41
41
41
41
41
41
00
00
00
FF
ENDCHAR
STARTCHAR C105
ENCODING 105
SWIDTH 666 0
DWIDTH 8 0
BBX 8 20 0 -2
BITMAP
08
08
08
08
00
00
38
38
08
08
08
08
08
08
3E
3E
00
00
00
FF
ENDCHAR
STARTCHAR C106
ENCODING 106
SWIDTH 666 0
DWIDTH 8 0
BBX 8 20 0 -2
BITMAP
02
02
02
02
00
00
1E
1E
02
02
02
02
02
02
02
02
02
02
3C
FF
ENDCHAR
STARTCHAR C107
ENCODING 107
SWIDTH 666 0
DWIDTH 8 0
BBX 8 20 0 -2
BITMAP
40
40
40
40
40
40
46
46
48
48
70
70
48
48
46
46
00
00
00
FF
ENDCHAR
STARTCHAR C108
ENCODING 108
SWIDTH 666 0
DWIDTH 8 0
BBX 8 20 0 -2
BITMAP
18
18
08
08
08
08
08
08
08
08
08
08
08
08
1C
1C
00
00
00
FF
ENDCHAR
STARTCHAR C109
ENCODING 109
SWIDTH 666 0
DWIDTH 8 0
BBX 8 20 0 -2
BITMAP
00
00
00
00
00
00
76
76
49
49
49
49
49
49
41
41
00
00
00
FF
ENDCHAR
STARTCHAR C110
ENCODING 110
SWIDTH 666 0
DWIDTH 8 0
BBX 8 20 0 -2
BITMAP
00
00
00
00
00
00
5E
5E
61
61
41
41
41
41
41
41
00
00
00
FF
ENDCHAR
STARTCHAR C111
ENCODING 111
SWIDTH 666 0
DWIDTH 8 0
BBX 8 20 0 -2
BITMAP
00
00
00
00
00
00
3E
3E
41
41
41
41
41
41
3E
3E
00
00
00
FF
ENDCHAR
STARTCHAR C112
ENCODING 112
SWIDTH 666 0
DWIDTH 8 0
BBX 8 20 0 -2
BITMAP
00
00
00
00
00
00
7E
7E
41
41
41
41
41
41
7E
7E
40
40
40
FF
ENDCHAR
STARTCHAR C113
ENCODING 113
SWIDTH 666 0
DWIDTH 8 0
BBX 8 20 0 -2
BITMAP
00
00
00
00
00
00
3F
3F
41
41
41
41
41
41
3F
3F
01
01
01
FF
ENDCHAR
STARTCHAR C114
ENCODING 114
SWIDTH 666 0
DWIDTH 8 0
BBX 8 20 0 -2
BITMAP
00
00
00
00
00
00
2E
2E
30
30
20
20
20
20
20
20
00
00
00
FF
ENDCHAR
STARTCHAR C115
ENCODING 115
SWIDTH 666 0
DWIDTH 8 0
BBX 8 20 0 -2
BITMAP
00
00
00
00
00
00
3E
3E
40
40
3C
3C
02
02
7C
7C
00
00
00
FF
ENDCHAR
STARTCHAR C116
ENCODING 116
SWIDTH 666 0
DWIDTH 8 0
BBX 8 20 0 -2
BITMAP
10
10
10
10
10
10
7E
7E
10
10
10
10
10
10
0E
0E
00
00
00
FF
ENDCHAR
STARTCHAR C117
ENCODING 117
SWIDTH 666 0
DWIDTH 8 0
BBX 8 20 0 -2
BITMAP
00
00
00
00
00
00
41
41
41
41
41
41
43
43
3D
3D
00
00
00
FF
ENDCHAR
STARTCHAR C118
ENCODING 118
SWIDTH 666 0
DWIDTH 8 0
BBX 8 20 0 -2
BITMAP
00
00
00
00
00
00
63
63
22
22
14
14
14
14
08
08
00
00
00
FF
ENDCHAR
STARTCHAR C119
ENCODING 119
SWIDTH 666 0
DWIDTH 8 0
BBX 8 20 0 -2
BITMAP
00
00
00
00
00
00
41
41
49
49
49
49
49
49
36
36
00
00
00
FF
ENDCHAR
STARTCHAR C120
ENCODING 120
SWIDTH 666 0
DWIDTH 8 0
BBX 8 20 0 -2
BITMAP
00
00
00
00
00
00
63
63
14
14
08
08
14
14
63
63
00
00
00
FF
ENDCHAR
STARTCHAR C121
ENCODING 121
SWIDTH 666 0
DWIDTH 8 0
BBX 8 20 0 -2
BITMAP
00
00
00
00
00
00
42
42
42
42
42
42
42
42
3E
3E
02
02
3C
FF
ENDCHAR
STARTCHAR C122
ENCODING 122
SWIDTH 666 0
DWIDTH 8 0
BBX 8 20 0 -2
BITMAP
00
00
00
00
00
00
7E
7E
04
04
18
18
20
20
7E
7E
00
00
00
FF
ENDCHAR
STARTCHAR C123
ENCODING 123
SWIDTH 666 0
DWIDTH 8 0
BBX 8 20 0 -2
BITMAP
80
80
80
80
80
80
80
80
80
80
80
80
80
80
80
80
80
80
80
FF
ENDCHAR
STARTCHAR C124
ENCODING 124
SWIDTH 666 0
DWIDTH 8 0
BBX 8 20 0 -2
BITMAP
08
08
08
08
08
08
08
08
08
08
08
08
08
08
08
08
08
08
08
FF
ENDCHAR
STARTCHAR C125
ENCODING 125
SWIDTH 666 0
DWIDTH 8 0
BBX 8 20 0 -2
BITMAP
01
01
01
01
01
01
01
01
01
01
01
01
01
01
01
01
01
01
01
FF
ENDCHAR
STARTCHAR C126
ENCODING 126
SWIDTH 666 0
DWIDTH 8 0
BBX 8 20 0 -2
BITMAP
FF
FF
00
00
00
00
00
00
00
00
00
00
00
00
00
00
00
00
00
FF
ENDCHAR
STARTCHAR C127
ENCODING 127
SWIDTH 666 0
DWIDTH 8 0
BBX 8 20 0 -2
BITMAP
ff
ff
ff
ff
ff
ff
ff
ff
ff
ff
ff
ff
ff
ff
ff
ff
ff
ff
ff
ff
ENDCHAR
ENDFONT
























