STARTFONT 2.1
COMMENT $Id: g1s8x10.bdf,v 1.1 1994/08/30 15:35:05 pierre Exp $
FONT -Lectra-Minitel-Medium-R-Normal--10-100-75-75-C-80-ISO2022-1S
SIZE 10 75 75
FONTBOUNDINGBOX 8 10 0 -2
STARTPROPERTIES 19
FONTNAME_REGISTRY ""
FOUNDRY "Lectra"
FAMILY_NAME "Minitel"
WEIGHT_NAME "Medium"
SLANT "R"
SETWIDTH_NAME "Normal"
ADD_STYLE_NAME ""
PIXEL_SIZE 10
POINT_SIZE 100
RESOLUTION_X 75
RESOLUTION_Y 75
SPACING "C"
AVERAGE_WIDTH 80
CHARSET_REGISTRY "ISO2022-1S"
CHARSET_ENCODING "1"
FONT_ASCENT 8
FONT_DESCENT 2
DEFAULT_CHAR 0
COPYRIGHT "Copyright 1991 Lectra-Systemes"
ENDPROPERTIES
CHARS 128
STARTCHAR C000
ENCODING 0
SWIDTH 666 0
DWIDTH 8 0
BBX 8 10 0 -2
BITMAP
00
00
00
00
00
00
00
00
00
00
ENDCHAR
STARTCHAR C001
ENCODING 1
SWIDTH 666 0
DWIDTH 8 0
BBX 8 10 0 -2
BITMAP
00
00
00
00
00
00
00
00
00
00
ENDCHAR
STARTCHAR C002
ENCODING 2
SWIDTH 666 0
DWIDTH 8 0
BBX 8 10 0 -2
BITMAP
00
00
00
00
00
00
00
00
00
00
ENDCHAR
STARTCHAR C003
ENCODING 3
SWIDTH 666 0
DWIDTH 8 0
BBX 8 10 0 -2
BITMAP
00
00
00
00
00
00
00
00
00
00
ENDCHAR
STARTCHAR C004
ENCODING 4
SWIDTH 666 0
DWIDTH 8 0
BBX 8 10 0 -2
BITMAP
00
00
00
00
00
00
00
00
00
00
ENDCHAR
STARTCHAR C005
ENCODING 5
SWIDTH 666 0
DWIDTH 8 0
BBX 8 10 0 -2
BITMAP
00
00
00
00
00
00
00
00
00
00
ENDCHAR
STARTCHAR C006
ENCODING 6
SWIDTH 666 0
DWIDTH 8 0
BBX 8 10 0 -2
BITMAP
00
00
00
00
00
00
00
00
00
00
ENDCHAR
STARTCHAR C007
ENCODING 7
SWIDTH 666 0
DWIDTH 8 0
BBX 8 10 0 -2
BITMAP
00
00
00
00
00
00
00
00
00
00
ENDCHAR
STARTCHAR C008
ENCODING 8
SWIDTH 666 0
DWIDTH 8 0
BBX 8 10 0 -2
BITMAP
00
00
00
00
00
00
00
00
00
00
ENDCHAR
STARTCHAR C009
ENCODING 9
SWIDTH 666 0
DWIDTH 8 0
BBX 8 10 0 -2
BITMAP
00
00
00
00
00
00
00
00
00
00
ENDCHAR
STARTCHAR C010
ENCODING 10
SWIDTH 666 0
DWIDTH 8 0
BBX 8 10 0 -2
BITMAP
00
00
00
00
00
00
00
00
00
00
ENDCHAR
STARTCHAR C011
ENCODING 11
SWIDTH 666 0
DWIDTH 8 0
BBX 8 10 0 -2
BITMAP
00
00
00
00
00
00
00
00
00
00
ENDCHAR
STARTCHAR C012
ENCODING 12
SWIDTH 666 0
DWIDTH 8 0
BBX 8 10 0 -2
BITMAP
00
00
00
00
00
00
00
00
00
00
ENDCHAR
STARTCHAR C013
ENCODING 13
SWIDTH 666 0
DWIDTH 8 0
BBX 8 10 0 -2
BITMAP
00
00
00
00
00
00
00
00
00
00
ENDCHAR
STARTCHAR C014
ENCODING 14
SWIDTH 666 0
DWIDTH 8 0
BBX 8 10 0 -2
BITMAP
00
00
00
00
00
00
00
00
00
00
ENDCHAR
STARTCHAR C015
ENCODING 15
SWIDTH 666 0
DWIDTH 8 0
BBX 8 10 0 -2
BITMAP
00
00
00
00
00
00
00
00
00
00
ENDCHAR
STARTCHAR C016
ENCODING 16
SWIDTH 666 0
DWIDTH 8 0
BBX 8 10 0 -2
BITMAP
00
00
00
00
00
00
00
00
00
00
ENDCHAR
STARTCHAR C017
ENCODING 17
SWIDTH 666 0
DWIDTH 8 0
BBX 8 10 0 -2
BITMAP
00
00
00
00
00
00
00
00
00
00
ENDCHAR
STARTCHAR C018
ENCODING 18
SWIDTH 666 0
DWIDTH 8 0
BBX 8 10 0 -2
BITMAP
00
00
00
00
00
00
00
00
00
00
ENDCHAR
STARTCHAR C019
ENCODING 19
SWIDTH 666 0
DWIDTH 8 0
BBX 8 10 0 -2
BITMAP
00
00
00
00
00
00
00
00
00
00
ENDCHAR
STARTCHAR C020
ENCODING 20
SWIDTH 666 0
DWIDTH 8 0
BBX 8 10 0 -2
BITMAP
00
00
00
00
00
00
00
00
00
00
ENDCHAR
STARTCHAR C021
ENCODING 21
SWIDTH 666 0
DWIDTH 8 0
BBX 8 10 0 -2
BITMAP
00
00
00
00
00
00
00
00
00
00
ENDCHAR
STARTCHAR C022
ENCODING 22
SWIDTH 666 0
DWIDTH 8 0
BBX 8 10 0 -2
BITMAP
00
00
00
00
00
00
00
00
00
00
ENDCHAR
STARTCHAR C023
ENCODING 23
SWIDTH 666 0
DWIDTH 8 0
BBX 8 10 0 -2
BITMAP
00
00
00
00
00
00
00
00
00
00
ENDCHAR
STARTCHAR C024
ENCODING 24
SWIDTH 666 0
DWIDTH 8 0
BBX 8 10 0 -2
BITMAP
00
00
00
00
00
00
00
00
00
00
ENDCHAR
STARTCHAR C025
ENCODING 25
SWIDTH 666 0
DWIDTH 8 0
BBX 8 10 0 -2
BITMAP
00
00
00
00
00
00
00
00
00
00
ENDCHAR
STARTCHAR C026
ENCODING 26
SWIDTH 666 0
DWIDTH 8 0
BBX 8 10 0 -2
BITMAP
00
00
00
00
00
00
00
00
00
00
ENDCHAR
STARTCHAR C027
ENCODING 27
SWIDTH 666 0
DWIDTH 8 0
BBX 8 10 0 -2
BITMAP
00
00
00
00
00
00
00
00
00
00
ENDCHAR
STARTCHAR C028
ENCODING 28
SWIDTH 666 0
DWIDTH 8 0
BBX 8 10 0 -2
BITMAP
00
00
00
00
00
00
00
00
00
00
ENDCHAR
STARTCHAR C029
ENCODING 29
SWIDTH 666 0
DWIDTH 8 0
BBX 8 10 0 -2
BITMAP
00
00
00
00
00
00
00
00
00
00
ENDCHAR
STARTCHAR C030
ENCODING 30
SWIDTH 666 0
DWIDTH 8 0
BBX 8 10 0 -2
BITMAP
00
00
00
00
00
00
00
00
00
00
ENDCHAR
STARTCHAR C031
ENCODING 31
SWIDTH 666 0
DWIDTH 8 0
BBX 8 10 0 -2
BITMAP
00
00
00
00
00
00
00
00
00
00
ENDCHAR
STARTCHAR C032
ENCODING 32
SWIDTH 666 0
DWIDTH 8 0
BBX 8 10 0 -2
BITMAP
00
00
00
00
00
00
00
00
00
00
ENDCHAR
STARTCHAR C033
ENCODING 33
SWIDTH 666 0
DWIDTH 8 0
BBX 8 10 0 -2
BITMAP
70
70
00
00
00
00
00
00
00
00
ENDCHAR
STARTCHAR C034
ENCODING 34
SWIDTH 666 0
DWIDTH 8 0
BBX 8 10 0 -2
BITMAP
07
07
00
00
00
00
00
00
00
00
ENDCHAR
STARTCHAR C035
ENCODING 35
SWIDTH 666 0
DWIDTH 8 0
BBX 8 10 0 -2
BITMAP
77
77
00
00
00
00
00
00
00
00
ENDCHAR
STARTCHAR C036
ENCODING 36
SWIDTH 666 0
DWIDTH 8 0
BBX 8 10 0 -2
BITMAP
00
00
00
70
70
70
00
00
00
00
ENDCHAR
STARTCHAR C037
ENCODING 37
SWIDTH 666 0
DWIDTH 8 0
BBX 8 10 0 -2
BITMAP
70
70
00
70
70
70
00
00
00
00
ENDCHAR
STARTCHAR C038
ENCODING 38
SWIDTH 666 0
DWIDTH 8 0
BBX 8 10 0 -2
BITMAP
07
07
00
70
70
70
00
00
00
00
ENDCHAR
STARTCHAR C039
ENCODING 39
SWIDTH 666 0
DWIDTH 8 0
BBX 8 10 0 -2
BITMAP
77
77
00
70
70
70
00
00
00
00
ENDCHAR
STARTCHAR C040
ENCODING 40
SWIDTH 666 0
DWIDTH 8 0
BBX 8 10 0 -2
BITMAP
00
00
00
07
07
07
00
00
00
00
ENDCHAR
STARTCHAR C041
ENCODING 41
SWIDTH 666 0
DWIDTH 8 0
BBX 8 10 0 -2
BITMAP
70
70
00
07
07
07
00
00
00
00
ENDCHAR
STARTCHAR C042
ENCODING 42
SWIDTH 666 0
DWIDTH 8 0
BBX 8 10 0 -2
BITMAP
07
07
00
07
07
07
00
00
00
00
ENDCHAR
STARTCHAR C043
ENCODING 43
SWIDTH 666 0
DWIDTH 8 0
BBX 8 10 0 -2
BITMAP
77
77
00
07
07
07
00
00
00
00
ENDCHAR
STARTCHAR C044
ENCODING 44
SWIDTH 666 0
DWIDTH 8 0
BBX 8 10 0 -2
BITMAP
00
00
00
77
77
77
00
00
00
00
ENDCHAR
STARTCHAR C045
ENCODING 45
SWIDTH 666 0
DWIDTH 8 0
BBX 8 10 0 -2
BITMAP
70
70
00
77
77
77
00
00
00
00
ENDCHAR
STARTCHAR C046
ENCODING 46
SWIDTH 666 0
DWIDTH 8 0
BBX 8 10 0 -2
BITMAP
07
07
00
77
77
77
00
00
00
00
ENDCHAR
STARTCHAR C047
ENCODING 47
SWIDTH 666 0
DWIDTH 8 0
BBX 8 10 0 -2
BITMAP
77
77
00
77
77
77
00
00
00
00
ENDCHAR
STARTCHAR C048
ENCODING 48
SWIDTH 666 0
DWIDTH 8 0
BBX 8 10 0 -2
BITMAP
00
00
00
00
00
00
00
70
70
00
ENDCHAR
STARTCHAR C049
ENCODING 49
SWIDTH 666 0
DWIDTH 8 0
BBX 8 10 0 -2
BITMAP
70
70
00
00
00
00
00
70
70
00
ENDCHAR
STARTCHAR C050
ENCODING 50
SWIDTH 666 0
DWIDTH 8 0
BBX 8 10 0 -2
BITMAP
07
07
00
00
00
00
00
70
70
00
ENDCHAR
STARTCHAR C051
ENCODING 51
SWIDTH 666 0
DWIDTH 8 0
BBX 8 10 0 -2
BITMAP
77
77
00
00
00
00
00
70
70
00
ENDCHAR
STARTCHAR C052
ENCODING 52
SWIDTH 666 0
DWIDTH 8 0
BBX 8 10 0 -2
BITMAP
00
00
00
70
70
70
00
70
70
00
ENDCHAR
STARTCHAR C053
ENCODING 53
SWIDTH 666 0
DWIDTH 8 0
BBX 8 10 0 -2
BITMAP
70
70
00
70
70
70
00
70
70
00
ENDCHAR
STARTCHAR C054
ENCODING 54
SWIDTH 666 0
DWIDTH 8 0
BBX 8 10 0 -2
BITMAP
07
07
00
70
70
70
00
70
70
00
ENDCHAR
STARTCHAR C055
ENCODING 55
SWIDTH 666 0
DWIDTH 8 0
BBX 8 10 0 -2
BITMAP
77
77
00
70
70
70
00
70
70
00
ENDCHAR
STARTCHAR C056
ENCODING 56
SWIDTH 666 0
DWIDTH 8 0
BBX 8 10 0 -2
BITMAP
00
00
00
07
07
07
00
70
70
00
ENDCHAR
STARTCHAR C057
ENCODING 57
SWIDTH 666 0
DWIDTH 8 0
BBX 8 10 0 -2
BITMAP
70
70
00
07
07
07
00
70
70
00
ENDCHAR
STARTCHAR C058
ENCODING 58
SWIDTH 666 0
DWIDTH 8 0
BBX 8 10 0 -2
BITMAP
07
07
00
07
07
07
00
70
70
00
ENDCHAR
STARTCHAR C059
ENCODING 59
SWIDTH 666 0
DWIDTH 8 0
BBX 8 10 0 -2
BITMAP
77
77
00
07
07
07
00
70
70
00
ENDCHAR
STARTCHAR C060
ENCODING 60
SWIDTH 666 0
DWIDTH 8 0
BBX 8 10 0 -2
BITMAP
00
00
00
77
77
77
00
70
70
00
ENDCHAR
STARTCHAR C061
ENCODING 61
SWIDTH 666 0
DWIDTH 8 0
BBX 8 10 0 -2
BITMAP
70
70
00
77
77
77
00
70
70
00
ENDCHAR
STARTCHAR C062
ENCODING 62
SWIDTH 666 0
DWIDTH 8 0
BBX 8 10 0 -2
BITMAP
07
07
00
77
77
77
00
70
70
00
ENDCHAR
STARTCHAR C063
ENCODING 63
SWIDTH 666 0
DWIDTH 8 0
BBX 8 10 0 -2
BITMAP
77
77
00
77
77
77
00
70
70
00
ENDCHAR
STARTCHAR C064
ENCODING 64
SWIDTH 666 0
DWIDTH 8 0
BBX 8 10 0 -2
BITMAP
00
00
00
00
00
00
00
07
07
00
ENDCHAR
STARTCHAR C065
ENCODING 65
SWIDTH 666 0
DWIDTH 8 0
BBX 8 10 0 -2
BITMAP
70
70
00
00
00
00
00
07
07
00
ENDCHAR
STARTCHAR C066
ENCODING 66
SWIDTH 666 0
DWIDTH 8 0
BBX 8 10 0 -2
BITMAP
07
07
00
00
00
00
00
07
07
00
ENDCHAR
STARTCHAR C067
ENCODING 67
SWIDTH 666 0
DWIDTH 8 0
BBX 8 10 0 -2
BITMAP
77
77
00
00
00
00
00
07
07
00
ENDCHAR
STARTCHAR C068
ENCODING 68
SWIDTH 666 0
DWIDTH 8 0
BBX 8 10 0 -2
BITMAP
00
00
00
70
70
70
00
07
07
00
ENDCHAR
STARTCHAR C069
ENCODING 69
SWIDTH 666 0
DWIDTH 8 0
BBX 8 10 0 -2
BITMAP
70
70
00
70
70
70
00
07
07
00
ENDCHAR
STARTCHAR C070
ENCODING 70
SWIDTH 666 0
DWIDTH 8 0
BBX 8 10 0 -2
BITMAP
07
07
00
70
70
70
00
07
07
00
ENDCHAR
STARTCHAR C071
ENCODING 71
SWIDTH 666 0
DWIDTH 8 0
BBX 8 10 0 -2
BITMAP
77
77
00
70
70
70
00
07
07
00
ENDCHAR
STARTCHAR C072
ENCODING 72
SWIDTH 666 0
DWIDTH 8 0
BBX 8 10 0 -2
BITMAP
00
00
00
07
07
07
00
07
07
00
ENDCHAR
STARTCHAR C073
ENCODING 73
SWIDTH 666 0
DWIDTH 8 0
BBX 8 10 0 -2
BITMAP
70
70
00
07
07
07
00
07
07
00
ENDCHAR
STARTCHAR C074
ENCODING 74
SWIDTH 666 0
DWIDTH 8 0
BBX 8 10 0 -2
BITMAP
07
07
00
07
07
07
00
07
07
00
ENDCHAR
STARTCHAR C075
ENCODING 75
SWIDTH 666 0
DWIDTH 8 0
BBX 8 10 0 -2
BITMAP
77
77
00
07
07
07
00
07
07
00
ENDCHAR
STARTCHAR C076
ENCODING 76
SWIDTH 666 0
DWIDTH 8 0
BBX 8 10 0 -2
BITMAP
00
00
00
77
77
77
00
07
07
00
ENDCHAR
STARTCHAR C077
ENCODING 77
SWIDTH 666 0
DWIDTH 8 0
BBX 8 10 0 -2
BITMAP
70
70
00
77
77
77
00
07
07
00
ENDCHAR
STARTCHAR C078
ENCODING 78
SWIDTH 666 0
DWIDTH 8 0
BBX 8 10 0 -2
BITMAP
07
07
00
77
77
77
00
07
07
00
ENDCHAR
STARTCHAR C079
ENCODING 79
SWIDTH 666 0
DWIDTH 8 0
BBX 8 10 0 -2
BITMAP
77
77
00
77
77
77
00
07
07
00
ENDCHAR
STARTCHAR C080
ENCODING 80
SWIDTH 666 0
DWIDTH 8 0
BBX 8 10 0 -2
BITMAP
00
00
00
00
00
00
00
77
77
00
ENDCHAR
STARTCHAR C081
ENCODING 81
SWIDTH 666 0
DWIDTH 8 0
BBX 8 10 0 -2
BITMAP
70
70
00
00
00
00
00
77
77
00
ENDCHAR
STARTCHAR C082
ENCODING 82
SWIDTH 666 0
DWIDTH 8 0
BBX 8 10 0 -2
BITMAP
07
07
00
00
00
00
00
77
77
00
ENDCHAR
STARTCHAR C083
ENCODING 83
SWIDTH 666 0
DWIDTH 8 0
BBX 8 10 0 -2
BITMAP
77
77
00
00
00
00
00
77
77
00
ENDCHAR
STARTCHAR C084
ENCODING 84
SWIDTH 666 0
DWIDTH 8 0
BBX 8 10 0 -2
BITMAP
00
00
00
70
70
70
00
77
77
00
ENDCHAR
STARTCHAR C085
ENCODING 85
SWIDTH 666 0
DWIDTH 8 0
BBX 8 10 0 -2
BITMAP
70
70
00
70
70
70
00
77
77
00
ENDCHAR
STARTCHAR C086
ENCODING 86
SWIDTH 666 0
DWIDTH 8 0
BBX 8 10 0 -2
BITMAP
07
07
00
70
70
70
00
77
77
00
ENDCHAR
STARTCHAR C087
ENCODING 87
SWIDTH 666 0
DWIDTH 8 0
BBX 8 10 0 -2
BITMAP
77
77
00
70
70
70
00
77
77
00
ENDCHAR
STARTCHAR C088
ENCODING 88
SWIDTH 666 0
DWIDTH 8 0
BBX 8 10 0 -2
BITMAP
00
00
00
07
07
07
00
77
77
00
ENDCHAR
STARTCHAR C089
ENCODING 89
SWIDTH 666 0
DWIDTH 8 0
BBX 8 10 0 -2
BITMAP
70
70
00
07
07
07
00
77
77
00
ENDCHAR
STARTCHAR C090
ENCODING 90
SWIDTH 666 0
DWIDTH 8 0
BBX 8 10 0 -2
BITMAP
07
07
00
07
07
07
00
77
77
00
ENDCHAR
STARTCHAR C091
ENCODING 91
SWIDTH 666 0
DWIDTH 8 0
BBX 8 10 0 -2
BITMAP
77
77
00
07
07
07
00
77
77
00
ENDCHAR
STARTCHAR C092
ENCODING 92
SWIDTH 666 0
DWIDTH 8 0
BBX 8 10 0 -2
BITMAP
00
00
00
77
77
77
00
77
77
00
ENDCHAR
STARTCHAR C093
ENCODING 93
SWIDTH 666 0
DWIDTH 8 0
BBX 8 10 0 -2
BITMAP
70
70
00
77
77
77
00
77
77
00
ENDCHAR
STARTCHAR C094
ENCODING 94
SWIDTH 666 0
DWIDTH 8 0
BBX 8 10 0 -2
BITMAP
07
07
00
77
77
77
00
77
77
00
ENDCHAR
STARTCHAR C095
ENCODING 95
SWIDTH 666 0
DWIDTH 8 0
BBX 8 10 0 -2
BITMAP
77
77
00
77
77
77
00
77
77
00
ENDCHAR
STARTCHAR C096
ENCODING 96
SWIDTH 666 0
DWIDTH 8 0
BBX 8 10 0 -2
BITMAP
00
00
00
00
00
00
00
07
07
00
ENDCHAR
STARTCHAR C097
ENCODING 97
SWIDTH 666 0
DWIDTH 8 0
BBX 8 10 0 -2
BITMAP
70
70
00
00
00
00
00
07
07
00
ENDCHAR
STARTCHAR C098
ENCODING 98
SWIDTH 666 0
DWIDTH 8 0
BBX 8 10 0 -2
BITMAP
07
07
00
00
00
00
00
07
07
00
ENDCHAR
STARTCHAR C099
ENCODING 99
SWIDTH 666 0
DWIDTH 8 0
BBX 8 10 0 -2
BITMAP
77
77
00
00
00
00
00
07
07
00
ENDCHAR
STARTCHAR C100
ENCODING 100
SWIDTH 666 0
DWIDTH 8 0
BBX 8 10 0 -2
BITMAP
00
00
00
70
70
70
00
07
07
00
ENDCHAR
STARTCHAR C101
ENCODING 101
SWIDTH 666 0
DWIDTH 8 0
BBX 8 10 0 -2
BITMAP
70
70
00
70
70
70
00
07
07
00
ENDCHAR
STARTCHAR C102
ENCODING 102
SWIDTH 666 0
DWIDTH 8 0
BBX 8 10 0 -2
BITMAP
07
07
00
70
70
70
00
07
07
00
ENDCHAR
STARTCHAR C103
ENCODING 103
SWIDTH 666 0
DWIDTH 8 0
BBX 8 10 0 -2
BITMAP
77
77
00
70
70
70
00
07
07
00
ENDCHAR
STARTCHAR C104
ENCODING 104
SWIDTH 666 0
DWIDTH 8 0
BBX 8 10 0 -2
BITMAP
00
00
00
07
07
07
00
07
07
00
ENDCHAR
STARTCHAR C105
ENCODING 105
SWIDTH 666 0
DWIDTH 8 0
BBX 8 10 0 -2
BITMAP
70
70
00
07
07
07
00
07
07
00
ENDCHAR
STARTCHAR C106
ENCODING 106
SWIDTH 666 0
DWIDTH 8 0
BBX 8 10 0 -2
BITMAP
07
07
00
07
07
07
00
07
07
00
ENDCHAR
STARTCHAR C107
ENCODING 107
SWIDTH 666 0
DWIDTH 8 0
BBX 8 10 0 -2
BITMAP
77
77
00
07
07
07
00
07
07
00
ENDCHAR
STARTCHAR C108
ENCODING 108
SWIDTH 666 0
DWIDTH 8 0
BBX 8 10 0 -2
BITMAP
00
00
00
77
77
77
00
07
07
00
ENDCHAR
STARTCHAR C109
ENCODING 109
SWIDTH 666 0
DWIDTH 8 0
BBX 8 10 0 -2
BITMAP
70
70
00
77
77
77
00
07
07
00
ENDCHAR
STARTCHAR C110
ENCODING 110
SWIDTH 666 0
DWIDTH 8 0
BBX 8 10 0 -2
BITMAP
07
07
00
77
77
77
00
07
07
00
ENDCHAR
STARTCHAR C111
ENCODING 111
SWIDTH 666 0
DWIDTH 8 0
BBX 8 10 0 -2
BITMAP
77
77
00
77
77
77
00
07
07
00
ENDCHAR
STARTCHAR C112
ENCODING 112
SWIDTH 666 0
DWIDTH 8 0
BBX 8 10 0 -2
BITMAP
00
00
00
00
00
00
00
77
77
00
ENDCHAR
STARTCHAR C113
ENCODING 113
SWIDTH 666 0
DWIDTH 8 0
BBX 8 10 0 -2
BITMAP
70
70
00
00
00
00
00
77
77
00
ENDCHAR
STARTCHAR C114
ENCODING 114
SWIDTH 666 0
DWIDTH 8 0
BBX 8 10 0 -2
BITMAP
07
07
00
00
00
00
00
77
77
00
ENDCHAR
STARTCHAR C115
ENCODING 115
SWIDTH 666 0
DWIDTH 8 0
BBX 8 10 0 -2
BITMAP
77
77
00
00
00
00
00
77
77
00
ENDCHAR
STARTCHAR C116
ENCODING 116
SWIDTH 666 0
DWIDTH 8 0
BBX 8 10 0 -2
BITMAP
00
00
00
70
70
70
00
77
77
00
ENDCHAR
STARTCHAR C117
ENCODING 117
SWIDTH 666 0
DWIDTH 8 0
BBX 8 10 0 -2
BITMAP
70
70
00
70
70
70
00
77
77
00
ENDCHAR
STARTCHAR C118
ENCODING 118
SWIDTH 666 0
DWIDTH 8 0
BBX 8 10 0 -2
BITMAP
07
07
00
70
70
70
00
77
77
00
ENDCHAR
STARTCHAR C119
ENCODING 119
SWIDTH 666 0
DWIDTH 8 0
BBX 8 10 0 -2
BITMAP
77
77
00
70
70
70
00
77
77
00
ENDCHAR
STARTCHAR C120
ENCODING 120
SWIDTH 666 0
DWIDTH 8 0
BBX 8 10 0 -2
BITMAP
00
00
00
07
07
07
00
77
77
00
ENDCHAR
STARTCHAR C121
ENCODING 121
SWIDTH 666 0
DWIDTH 8 0
BBX 8 10 0 -2
BITMAP
70
70
00
07
07
07
00
77
77
00
ENDCHAR
STARTCHAR C122
ENCODING 122
SWIDTH 666 0
DWIDTH 8 0
BBX 8 10 0 -2
BITMAP
07
07
00
07
07
07
00
77
77
00
ENDCHAR
STARTCHAR C123
ENCODING 123
SWIDTH 666 0
DWIDTH 8 0
BBX 8 10 0 -2
BITMAP
77
77
00
07
07
07
00
77
77
00
ENDCHAR
STARTCHAR C124
ENCODING 124
SWIDTH 666 0
DWIDTH 8 0
BBX 8 10 0 -2
BITMAP
00
00
00
77
77
77
00
77
77
00
ENDCHAR
STARTCHAR C125
ENCODING 125
SWIDTH 666 0
DWIDTH 8 0
BBX 8 10 0 -2
BITMAP
70
70
00
77
77
77
00
77
77
00
ENDCHAR
STARTCHAR C126
ENCODING 126
SWIDTH 666 0
DWIDTH 8 0
BBX 8 10 0 -2
BITMAP
07
07
00
77
77
77
00
77
77
00
ENDCHAR
STARTCHAR C127
ENCODING 127
SWIDTH 666 0
DWIDTH 8 0
BBX 8 10 0 -2
BITMAP
77
77
00
77
77
77
00
77
77
00
ENDCHAR
ENDFONT

