STARTFONT 2.1
COMMENT $Id: g232x40.bdf,v 1.1 1994/08/30 15:35:05 pierre Exp $
FONT -Lectra-Minitel-Medium-R-Normal--40-400-75-75-C-320-ISO2022-2
SIZE 40 75 75
FONTBOUNDINGBOX 32 40 0 -2
STARTPROPERTIES 19
FONTNAME_REGISTRY ""
FOUNDRY "Lectra"
FAMILY_NAME "Minitel"
WEIGHT_NAME "Medium"
SLANT "R"
SETWIDTH_NAME "Normal"
ADD_STYLE_NAME ""
PIXEL_SIZE 40
POINT_SIZE 400
RESOLUTION_X 75
RESOLUTION_Y 75
SPACING "C"
AVERAGE_WIDTH 80
CHARSET_REGISTRY "ISO2022-2"
CHARSET_ENCODING "1"
FONT_ASCENT 38
FONT_DESCENT 2
DEFAULT_CHAR 0
COPYRIGHT "Copyright 1991 Lectra-Systemes"
ENDPROPERTIES
CHARS 20
STARTCHAR C035
ENCODING 35
SWIDTH 666 0
DWIDTH 32 0
BBX 32 40 0 -2
BITMAP
00000000
00000000
00000000
00000000
00FF0000
00FF0000
00FF0000
00FF0000
0F00FF00
0F00FF00
0F00FF00
0F00FF00
0F000F00
0F000F00
0F000F00
0F000F00
00F00000
00F00000
00F00000
00F00000
00F00000
00F00000
00F00000
00F00000
0FFF0000
0FFF0000
0FFF0000
0FFF0000
00F000F0
00F000F0
00F000F0
00F000F0
F0F00F00
F0F00F00
F0F00F00
F0F00F00
0FFFF000
0FFFF000
0FFFF000
0FFFF000
ENDCHAR
STARTCHAR C036
ENCODING 36
SWIDTH 666 0
DWIDTH 32 0
BBX 32 40 0 -2
BITMAP
00000000
00000000
00000000
00000000
0000F000
0000F000
0000F000
0000F000
000FFFF0
000FFFF0
000FFFF0
000FFFF0
00F0F000
00F0F000
00F0F000
00F0F000
000FFF00
000FFF00
000FFF00
000FFF00
0000F0F0
0000F0F0
0000F0F0
0000F0F0
00FFFF00
00FFFF00
00FFFF00
00FFFF00
0000F000
0000F000
0000F000
0000F000
00000000
00000000
00000000
00000000
00000000
00000000
00000000
00000000
ENDCHAR
STARTCHAR C038
ENCODING 38
SWIDTH 666 0
DWIDTH 32 0
BBX 32 40 0 -2
BITMAP
00F00F00
00F00F00
00F00F00
00F00F00
00F00F00
00F00F00
00F00F00
00F00F00
0FFFFFF0
0FFFFFF0
0FFFFFF0
0FFFFFF0
00F00F00
00F00F00
00F00F00
00F00F00
00F00F00
00F00F00
00F00F00
00F00F00
0FFFFFF0
0FFFFFF0
0FFFFFF0
0FFFFFF0
00F00F00
00F00F00
00F00F00
00F00F00
00F00F00
00F00F00
00F00F00
00F00F00
00000000
00000000
00000000
00000000
00000000
00000000
00000000
00000000
ENDCHAR
STARTCHAR C044
ENCODING 44
SWIDTH 666 0
DWIDTH 32 0
BBX 32 40 0 -2
BITMAP
00000000
00000000
00000000
00000000
00000000
00000000
00000000
00000000
00000000
00000000
00000000
00000000
00F00000
00F00000
00F00000
00F00000
0FF00000
0FF00000
0FF00000
0FF00000
FFFFFFFF
FFFFFFFF
FFFFFFFF
FFFFFFFF
0FF00000
0FF00000
0FF00000
0FF00000
00F00000
00F00000
00F00000
00F00000
00000000
00000000
00000000
00000000
00000000
00000000
00000000
00000000
ENDCHAR
STARTCHAR C045
ENCODING 45
SWIDTH 666 0
DWIDTH 32 0
BBX 32 40 0 -2
BITMAP
00000000
00000000
00000000
00000000
0000F000
0000F000
0000F000
0000F000
000FFF00
000FFF00
000FFF00
000FFF00
00FFFFF0
00FFFFF0
00FFFFF0
00FFFFF0
0000F000
0000F000
0000F000
0000F000
0000F000
0000F000
0000F000
0000F000
0000F000
0000F000
0000F000
0000F000
0000F000
0000F000
0000F000
0000F000
0000F000
0000F000
0000F000
0000F000
0000F000
0000F000
0000F000
0000F000
ENDCHAR
STARTCHAR C046
ENCODING 46
SWIDTH 666 0
DWIDTH 32 0
BBX 32 40 0 -2
BITMAP
00000000
00000000
00000000
00000000
00000000
00000000
00000000
00000000
00000000
00000000
00000000
00000000
00000F00
00000F00
00000F00
00000F00
00000FF0
00000FF0
00000FF0
00000FF0
FFFFFFFF
FFFFFFFF
FFFFFFFF
FFFFFFFF
00000FF0
00000FF0
00000FF0
00000FF0
00000F00
00000F00
00000F00
00000F00
00000000
00000000
00000000
00000000
00000000
00000000
00000000
00000000
ENDCHAR
STARTCHAR C047
ENCODING 47
SWIDTH 666 0
DWIDTH 32 0
BBX 32 40 0 -2
BITMAP
00000000
00000000
00000000
00000000
0000F000
0000F000
0000F000
0000F000
0000F000
0000F000
0000F000
0000F000
0000F000
0000F000
0000F000
0000F000
0000F000
0000F000
0000F000
0000F000
0000F000
0000F000
0000F000
0000F000
0000F000
0000F000
0000F000
0000F000
00FFFFF0
00FFFFF0
00FFFFF0
00FFFFF0
000FFF00
000FFF00
000FFF00
000FFF00
0000F000
0000F000
0000F000
0000F000
ENDCHAR
STARTCHAR C048
ENCODING 48
SWIDTH 666 0
DWIDTH 32 0
BBX 32 40 0 -2
BITMAP
0FF00000
0FF00000
0FF00000
0FF00000
F00F0000
F00F0000
F00F0000
F00F0000
F00F0000
F00F0000
F00F0000
F00F0000
0FF00000
0FF00000
0FF00000
0FF00000
00000000
00000000
00000000
00000000
00000000
00000000
00000000
00000000
00000000
00000000
00000000
00000000
00000000
00000000
00000000
00000000
00000000
00000000
00000000
00000000
00000000
00000000
00000000
00000000
ENDCHAR
STARTCHAR C049
ENCODING 49
SWIDTH 666 0
DWIDTH 32 0
BBX 32 40 0 -2
BITMAP
00000000
00000000
00000000
00000000
00000000
00000000
00000000
00000000
00F00000
00F00000
00F00000
00F00000
00F00000
00F00000
00F00000
00F00000
FFFFF000
FFFFF000
FFFFF000
FFFFF000
00F00000
00F00000
00F00000
00F00000
00F00000
00F00000
00F00000
00F00000
FFFFF000
FFFFF000
FFFFF000
FFFFF000
00000000
00000000
00000000
00000000
00000000
00000000
00000000
00000000
ENDCHAR
STARTCHAR C056
ENCODING 56
SWIDTH 666 0
DWIDTH 32 0
BBX 32 40 0 -2
BITMAP
00000000
00000000
00000000
00000000
00000000
00000000
00000000
00000000
0000F000
0000F000
0000F000
0000F000
00000000
00000000
00000000
00000000
0FFFFFFF
0FFFFFFF
0FFFFFFF
0FFFFFFF
00000000
00000000
00000000
00000000
0000F000
0000F000
0000F000
0000F000
00000000
00000000
00000000
00000000
00000000
00000000
00000000
00000000
00000000
00000000
00000000
00000000
ENDCHAR
STARTCHAR C060
ENCODING 60
SWIDTH 666 0
DWIDTH 32 0
BBX 32 40 0 -2
BITMAP
00000000
00000000
00000000
00000000
000F0000
000F0000
000F0000
000F0000
FF0F000F
FF0F000F
FF0F000F
FF0F000F
FF0F00FF
FF0F00FF
FF0F00FF
FF0F00FF
0F0F0FFF
0F0F0FFF
0F0F0FFF
0F0F0FFF
0F0F0F0F
0F0F0F0F
0F0F0F0F
0F0F0F0F
0F0F0FFF
0F0F0FFF
0F0F0FFF
0F0F0FFF
0F0F000F
0F0F000F
0F0F000F
0F0F000F
0F0F000F
0F0F000F
0F0F000F
0F0F000F
000F0000
000F0000
000F0000
000F0000
ENDCHAR
STARTCHAR C061
ENCODING 61
SWIDTH 666 0
DWIDTH 32 0
BBX 32 40 0 -2
BITMAP
00000000
00000000
00000000
00000000
000F0000
000F0000
000F0000
000F0000
FF0F0FFF
FF0F0FFF
FF0F0FFF
FF0F0FFF
FF0F000F
FF0F000F
FF0F000F
FF0F000F
0F0F000F
0F0F000F
0F0F000F
0F0F000F
0F0F0FFF
0F0F0FFF
0F0F0FFF
0F0F0FFF
0F0F0F00
0F0F0F00
0F0F0F00
0F0F0F00
0F0F0F00
0F0F0F00
0F0F0F00
0F0F0F00
0F0F0FFF
0F0F0FFF
0F0F0FFF
0F0F0FFF
000F0000
000F0000
000F0000
000F0000
ENDCHAR
STARTCHAR C062
ENCODING 62
SWIDTH 666 0
DWIDTH 32 0
BBX 32 40 0 -2
BITMAP
00000000
00000000
00000000
00000000
0000F000
0000F000
0000F000
0000F000
FFF0F00F
FFF0F00F
FFF0F00F
FFF0F00F
00F0F0FF
00F0F0FF
00F0F0FF
00F0F0FF
0F00FF0F
0F00FF0F
0F00FF0F
0F00FF0F
F000FFFF
F000FFFF
F000FFFF
F000FFFF
0F00F00F
0F00F00F
0F00F00F
0F00F00F
00F0F00F
00F0F00F
00F0F00F
00F0F00F
FFF0F00F
FFF0F00F
FFF0F00F
FFF0F00F
0000F000
0000F000
0000F000
0000F000
ENDCHAR
STARTCHAR C065
ENCODING 65
SWIDTH 666 0
DWIDTH 32 0
BBX 32 40 0 -2
BITMAP
00000000
00000000
00000000
00000000
00FF0000
00FF0000
00FF0000
00FF0000
000FF000
000FF000
000FF000
000FF000
00000000
00000000
00000000
00000000
00000000
00000000
00000000
00000000
00000000
00000000
00000000
00000000
00000000
00000000
00000000
00000000
00000000
00000000
00000000
00000000
00000000
00000000
00000000
00000000
00000000
00000000
00000000
00000000
ENDCHAR
STARTCHAR C066
ENCODING 66
SWIDTH 666 0
DWIDTH 32 0
BBX 32 40 0 -2
BITMAP
00000000
00000000
00000000
00000000
00000FF0
00000FF0
00000FF0
00000FF0
0000FF00
0000FF00
0000FF00
0000FF00
00000000
00000000
00000000
00000000
00000000
00000000
00000000
00000000
00000000
00000000
00000000
00000000
00000000
00000000
00000000
00000000
00000000
00000000
00000000
00000000
00000000
00000000
00000000
00000000
00000000
00000000
00000000
00000000
ENDCHAR
STARTCHAR C067
ENCODING 67
SWIDTH 666 0
DWIDTH 32 0
BBX 32 40 0 -2
BITMAP
00000000
00000000
00000000
00000000
000FFF00
000FFF00
000FFF00
000FFF00
00FF0FF0
00FF0FF0
00FF0FF0
00FF0FF0
00000000
00000000
00000000
00000000
00000000
00000000
00000000
00000000
00000000
00000000
00000000
00000000
00000000
00000000
00000000
00000000
00000000
00000000
00000000
00000000
00000000
00000000
00000000
00000000
00000000
00000000
00000000
00000000
ENDCHAR
STARTCHAR C072
ENCODING 72
SWIDTH 666 0
DWIDTH 32 0
BBX 32 40 0 -2
BITMAP
00000000
00000000
00000000
00000000
00FF0FF0
00FF0FF0
00FF0FF0
00FF0FF0
00000000
00000000
00000000
00000000
00000000
00000000
00000000
00000000
00000000
00000000
00000000
00000000
00000000
00000000
00000000
00000000
00000000
00000000
00000000
00000000
00000000
00000000
00000000
00000000
00000000
00000000
00000000
00000000
00000000
00000000
00000000
00000000
ENDCHAR
STARTCHAR C075
ENCODING 75
SWIDTH 666 0
DWIDTH 32 0
BBX 32 40 0 -2
BITMAP
00000000
00000000
00000000
00000000
00000000
00000000
00000000
00000000
00000000
00000000
00000000
00000000
00000000
00000000
00000000
00000000
00000000
00000000
00000000
00000000
00000000
00000000
00000000
00000000
00000000
00000000
00000000
00000000
00000000
00000000
00000000
00000000
000FF000
000FF000
000FF000
000FF000
00FFF000
00FFF000
00FFF000
00FFF000
ENDCHAR
STARTCHAR C106
ENCODING 106
SWIDTH 666 0
DWIDTH 32 0
BBX 32 40 0 -2
BITMAP
00000000
00000000
00000000
00000000
00FFFFFF
00FFFFFF
00FFFFFF
00FFFFFF
0F00F000
0F00F000
0F00F000
0F00F000
F000F000
F000F000
F000F000
F000F000
F000FFF0
F000FFF0
F000FFF0
F000FFF0
F000F000
F000F000
F000F000
F000F000
0F00F000
0F00F000
0F00F000
0F00F000
00FFFFFF
00FFFFFF
00FFFFFF
00FFFFFF
00000000
00000000
00000000
00000000
00000000
00000000
00000000
00000000
ENDCHAR
STARTCHAR C122
ENCODING 122
SWIDTH 666 0
DWIDTH 32 0
BBX 32 40 0 -2
BITMAP
00000000
00000000
00000000
00000000
00000000
00000000
00000000
00000000
00000000
00000000
00000000
00000000
0FFF0FFF
0FFF0FFF
0FFF0FFF
0FFF0FFF
F000F00F
F000F00F
F000F00F
F000F00F
F000FFFF
F000FFFF
F000FFFF
F000FFFF
F000F000
F000F000
F000F000
F000F000
0FFF0FFF
0FFF0FFF
0FFF0FFF
0FFF0FFF
00000000
00000000
00000000
00000000
00000000
00000000
00000000
00000000
ENDCHAR
ENDFONT

