STARTFONT 2.1
COMMENT $Id: g2s16x40.bdf,v 1.1 1994/08/30 15:35:05 pierre Exp $
FONT -Lectra-Minitel-Medium-R-Normal--40-400-75-75-C-160-ISO2022-2S
SIZE 40 75 75
FONTBOUNDINGBOX 16 40 0 -2
STARTPROPERTIES 19
FONTNAME_REGISTRY ""
FOUNDRY "Lectra"
FAMILY_NAME "Minitel"
WEIGHT_NAME "Medium"
SLANT "R"
SETWIDTH_NAME "Normal"
ADD_STYLE_NAME ""
PIXEL_SIZE 40
POINT_SIZE 400
RESOLUTION_X 75
RESOLUTION_Y 75
SPACING "C"
AVERAGE_WIDTH 80
CHARSET_REGISTRY "ISO2022-2S"
CHARSET_ENCODING "1"
FONT_ASCENT 38
FONT_DESCENT 2
DEFAULT_CHAR 0
COPYRIGHT "Copyright 1991 Lectra-Systemes"
ENDPROPERTIES
CHARS 20
STARTCHAR C035
ENCODING 35
SWIDTH 666 0
DWIDTH 16 0
BBX 16 40 0 -2
BITMAP
0000
0000
0000
0000
0F00
0F00
0F00
0F00
30F0
30F0
30F0
30F0
3030
3030
3030
3030
0C00
0C00
0C00
0C00
0C00
0C00
0C00
0C00
3F00
3F00
3F00
3F00
0C0C
0C0C
0C0C
0C0C
CC30
CC30
CC30
CC30
3FC0
3FC0
3FC0
FFFF
ENDCHAR
STARTCHAR C036
ENCODING 36
SWIDTH 666 0
DWIDTH 16 0
BBX 16 40 0 -2
BITMAP
0000
0000
0000
0000
00C0
00C0
00C0
00C0
03FC
03FC
03FC
03FC
0CC0
0CC0
0CC0
0CC0
03F0
03F0
03F0
03F0
00CC
00CC
00CC
00CC
0FF0
0FF0
0FF0
0FF0
00C0
00C0
00C0
00C0
0000
0000
0000
0000
0000
0000
0000
FFFF
ENDCHAR
STARTCHAR C038
ENCODING 38
SWIDTH 666 0
DWIDTH 16 0
BBX 16 40 0 -2
BITMAP
0C30
0C30
0C30
0C30
0C30
0C30
0C30
0C30
3FFC
3FFC
3FFC
3FFC
0C30
0C30
0C30
0C30
0C30
0C30
0C30
0C30
3FFC
3FFC
3FFC
3FFC
0C30
0C30
0C30
0C30
0C30
0C30
0C30
0C30
0000
0000
0000
0000
0000
0000
0000
FFFF
ENDCHAR
STARTCHAR C044
ENCODING 44
SWIDTH 666 0
DWIDTH 16 0
BBX 16 40 0 -2
BITMAP
0000
0000
0000
0000
0000
0000
0000
0000
0000
0000
0000
0000
0C00
0C00
0C00
0C00
3C00
3C00
3C00
3C00
FFFF
FFFF
FFFF
FFFF
3C00
3C00
3C00
3C00
0C00
0C00
0C00
0C00
0000
0000
0000
0000
0000
0000
0000
FFFF
ENDCHAR
STARTCHAR C045
ENCODING 45
SWIDTH 666 0
DWIDTH 16 0
BBX 16 40 0 -2
BITMAP
0000
0000
0000
0000
00C0
00C0
00C0
00C0
03F0
03F0
03F0
03F0
0FFC
0FFC
0FFC
0FFC
00C0
00C0
00C0
00C0
00C0
00C0
00C0
00C0
00C0
00C0
00C0
00C0
00C0
00C0
00C0
00C0
00C0
00C0
00C0
00C0
00C0
00C0
00C0
FFFF
ENDCHAR
STARTCHAR C046
ENCODING 46
SWIDTH 666 0
DWIDTH 16 0
BBX 16 40 0 -2
BITMAP
0000
0000
0000
0000
0000
0000
0000
0000
0000
0000
0000
0000
0030
0030
0030
0030
003C
003C
003C
003C
FFFF
FFFF
FFFF
FFFF
003C
003C
003C
003C
0030
0030
0030
0030
0000
0000
0000
0000
0000
0000
0000
FFFF
ENDCHAR
STARTCHAR C047
ENCODING 47
SWIDTH 666 0
DWIDTH 16 0
BBX 16 40 0 -2
BITMAP
0000
0000
0000
0000
00C0
00C0
00C0
00C0
00C0
00C0
00C0
00C0
00C0
00C0
00C0
00C0
00C0
00C0
00C0
00C0
00C0
00C0
00C0
00C0
00C0
00C0
00C0
00C0
0FFC
0FFC
0FFC
0FFC
03F0
03F0
03F0
03F0
00C0
00C0
00C0
FFFF
ENDCHAR
STARTCHAR C048
ENCODING 48
SWIDTH 666 0
DWIDTH 16 0
BBX 16 40 0 -2
BITMAP
3C00
3C00
3C00
3C00
C300
C300
C300
C300
C300
C300
C300
C300
3C00
3C00
3C00
3C00
0000
0000
0000
0000
0000
0000
0000
0000
0000
0000
0000
0000
0000
0000
0000
0000
0000
0000
0000
0000
0000
0000
0000
FFFF
ENDCHAR
STARTCHAR C049
ENCODING 49
SWIDTH 666 0
DWIDTH 16 0
BBX 16 40 0 -2
BITMAP
0000
0000
0000
0000
0000
0000
0000
0000
0C00
0C00
0C00
0C00
0C00
0C00
0C00
0C00
FFC0
FFC0
FFC0
FFC0
0C00
0C00
0C00
0C00
0C00
0C00
0C00
0C00
FFC0
FFC0
FFC0
FFC0
0000
0000
0000
0000
0000
0000
0000
FFFF
ENDCHAR
STARTCHAR C056
ENCODING 56
SWIDTH 666 0
DWIDTH 16 0
BBX 16 40 0 -2
BITMAP
0000
0000
0000
0000
0000
0000
0000
0000
00C0
00C0
00C0
00C0
0000
0000
0000
0000
3FFF
3FFF
3FFF
3FFF
0000
0000
0000
0000
00C0
00C0
00C0
00C0
0000
0000
0000
0000
0000
0000
0000
0000
0000
0000
0000
FFFF
ENDCHAR
STARTCHAR C060
ENCODING 60
SWIDTH 666 0
DWIDTH 16 0
BBX 16 40 0 -2
BITMAP
0000
0000
0000
0000
0300
0300
0300
0300
F303
F303
F303
F303
F30F
F30F
F30F
F30F
333F
333F
333F
333F
3333
3333
3333
3333
333F
333F
333F
333F
3303
3303
3303
3303
3303
3303
3303
3303
0300
0300
0300
FFFF
ENDCHAR
STARTCHAR C061
ENCODING 61
SWIDTH 666 0
DWIDTH 16 0
BBX 16 40 0 -2
BITMAP
0000
0000
0000
0000
0300
0300
0300
0300
F33F
F33F
F33F
F33F
F303
F303
F303
F303
3303
3303
3303
3303
333F
333F
333F
333F
3330
3330
3330
3330
3330
3330
3330
3330
333F
333F
333F
333F
0300
0300
0300
FFFF
ENDCHAR
STARTCHAR C062
ENCODING 62
SWIDTH 666 0
DWIDTH 16 0
BBX 16 40 0 -2
BITMAP
0000
0000
0000
0000
00C0
00C0
00C0
00C0
FCC3
FCC3
FCC3
FCC3
0CCF
0CCF
0CCF
0CCF
30F3
30F3
30F3
30F3
C0FF
C0FF
C0FF
C0FF
30C3
30C3
30C3
30C3
0CC3
0CC3
0CC3
0CC3
FCC3
FCC3
FCC3
FCC3
00C0
00C0
00C0
FFFF
ENDCHAR
STARTCHAR C065
ENCODING 65
SWIDTH 666 0
DWIDTH 16 0
BBX 16 40 0 -2
BITMAP
0000
0000
0000
0000
0F00
0F00
0F00
0F00
03C0
03C0
03C0
03C0
0000
0000
0000
0000
0000
0000
0000
0000
0000
0000
0000
0000
0000
0000
0000
0000
0000
0000
0000
0000
0000
0000
0000
0000
0000
0000
0000
FFFF
ENDCHAR
STARTCHAR C066
ENCODING 66
SWIDTH 666 0
DWIDTH 16 0
BBX 16 40 0 -2
BITMAP
0000
0000
0000
0000
003C
003C
003C
003C
00F0
00F0
00F0
00F0
0000
0000
0000
0000
0000
0000
0000
0000
0000
0000
0000
0000
0000
0000
0000
0000
0000
0000
0000
0000
0000
0000
0000
0000
0000
0000
0000
FFFF
ENDCHAR
STARTCHAR C067
ENCODING 67
SWIDTH 666 0
DWIDTH 16 0
BBX 16 40 0 -2
BITMAP
0000
0000
0000
0000
03F0
03F0
03F0
03F0
0F3C
0F3C
0F3C
0F3C
0000
0000
0000
0000
0000
0000
0000
0000
0000
0000
0000
0000
0000
0000
0000
0000
0000
0000
0000
0000
0000
0000
0000
0000
0000
0000
0000
FFFF
ENDCHAR
STARTCHAR C072
ENCODING 72
SWIDTH 666 0
DWIDTH 16 0
BBX 16 40 0 -2
BITMAP
0000
0000
0000
0000
0F3C
0F3C
0F3C
0F3C
0000
0000
0000
0000
0000
0000
0000
0000
0000
0000
0000
0000
0000
0000
0000
0000
0000
0000
0000
0000
0000
0000
0000
0000
0000
0000
0000
0000
0000
0000
0000
FFFF
ENDCHAR
STARTCHAR C075
ENCODING 75
SWIDTH 666 0
DWIDTH 16 0
BBX 16 40 0 -2
BITMAP
0000
0000
0000
0000
0000
0000
0000
0000
0000
0000
0000
0000
0000
0000
0000
0000
0000
0000
0000
0000
0000
0000
0000
0000
0000
0000
0000
0000
0000
0000
0000
0000
03C0
03C0
03C0
03C0
0FC0
0FC0
0FC0
FFFF
ENDCHAR
STARTCHAR C106
ENCODING 106
SWIDTH 666 0
DWIDTH 16 0
BBX 16 40 0 -2
BITMAP
0000
0000
0000
0000
0FFF
0FFF
0FFF
0FFF
30C0
30C0
30C0
30C0
C0C0
C0C0
C0C0
C0C0
C0FC
C0FC
C0FC
C0FC
C0C0
C0C0
C0C0
C0C0
30C0
30C0
30C0
30C0
0FFF
0FFF
0FFF
0FFF
0000
0000
0000
0000
0000
0000
0000
FFFF
ENDCHAR
STARTCHAR C122
ENCODING 122
SWIDTH 666 0
DWIDTH 16 0
BBX 16 40 0 -2
BITMAP
0000
0000
0000
0000
0000
0000
0000
0000
0000
0000
0000
0000
3F3F
3F3F
3F3F
3F3F
C0C3
C0C3
C0C3
C0C3
C0FF
C0FF
C0FF
C0FF
C0C0
C0C0
C0C0
C0C0
3F3F
3F3F
3F3F
3F3F
0000
0000
0000
0000
0000
0000
0000
FFFF
ENDCHAR
ENDFONT












































