/* XPM */
static char * annul_xpm[] = {
/* width height ncolors chars_per_pixel */
"62 22 5 1",
/* colors */
" 	c none",
".	c black",
"X	c #FCFCFC",
"o	c #986430",
"O	c #643000",
/* pixels */
"  ..........................................................  ",
" .XXXXXXXXXXXXXXXXXXXXXXXXXXXXXXXXXXXXXXXXXXXXXXXXXXXXXXXXXX. ",
".XoooooooooooooooooooooooooooooooooooooooooooooooooooooooooOO.",
".XoooooooooooooooooooooooooooooooooooooooooooooooooooooooooOO.",
".XooooooooooXooooooooooooooooooXXoooooooXoooXooooooooooooooOO.",
".XooooooooooXoooooooooooooooooooXoooooooXooooooooooooooooooOO.",
".XoooooooooXoXooXXXooXXXooXooXooXooXXooXXXoXXooXXooXXXoooooOO.",
".XoooooooooXoXooXooXoXooXoXooXooXooooXooXoooXoXooXoXooXooooOO.",
".XooooooooXXXXXoXooXoXooXoXooXooXooXXXooXoooXoXooXoXooXooooOO.",
".XooooooooXoooXoXooXoXooXoXooXooXoXooXooXoooXoXooXoXooXooooOO.",
".XooooooooXoooXoXooXoXooXooXXXooXooXXXoooXooXooXXooXooXooooOO.",
".XoooooooooooooooooooooooooooooooooooooooooooooooooooooooooOO.",
".XoooooooooooooooooooooooooooooooooooooooooooooooooooooooooOO.",
".XoooooooooooooooooooooooooooooooooooooooooooooooooooooooooOO.",
".XoooooooooooooooooooooooooooooooooooooooooooooooooooooooooOO.",
".XoooooooooooooooooooooooooooooooooooooooooooooooooooooooooOO.",
".XoooooooooooooooooooooooooooooooooooooooooooooooooooooooooOO.",
".XoooooooooooooooooooooooooooooooooooooooooooooooooooooooooOO.",
".XoooooooooooooooooooooooooooooooooooooooooooooooooooooooooOO.",
".XOOOOOOOOOOOOOOOOOOOOOOOOOOOOOOOOOOOOOOOOOOOOOOOOOOOOOOOOOOO.",
" .OOOOOOOOOOOOOOOOOOOOOOOOOOOOOOOOOOOOOOOOOOOOOOOOOOOOOOOOOO. ",
"  ..........................................................  "};
