/* XPM */
static char * camera_xpm[] = {
/*¿¡*/
"39 39 6 1",
/*blank39.xpm*/
" 	c #B0B0B0",
".	c black",
"X	c #757575",
"o	c #BEBEBE",
"O	c #CFCF00",
"+	c #FFFF00",
/**/
"                                       ",
"                                       ",
"                                       ",
"                                       ",
"                                       ",
"                                       ",
"                                       ",
"                                       ",
"                                       ",
"     .............................     ",
"    .                           XX.    ",
"    . .oooooooooooooooooooooooo.XX.    ",
"    . ooooooooooooooooooooooooooXX.    ",
"    . ooooooooooooooooooooooooooXX.    ",
"    . ooXXXXooooooooooooooXXXXooXX.    ",
"    . oXX...Xoo.........oXX...XoXX.    ",
"    . oX. . . o.OOOOOXXXoX. . . XX.    ",
"    . oX..X.. o.O+++OooXoX..X.. XX.    ",
"    . oX. . . o.O+++OooXoX. . . XX.    ",
"    . ooX...  o.XXXXXXXXooX...  XX.    ",
"    . ooo    oooooooooooooo    oXX.    ",
"    . ooooooooooooooooooooooooooXX.    ",
"    . ooooooooooooooooooooooooooXX.    ",
"    . ooooo               XXooooXX.    ",
"    . oooo ooooooo. ooooooo.ooooXX.    ",
"    . oooo ooo. oooooo. oooXXoooXX.    ",
"    . .oo oo. oooooooooo. oo.oo.XX.    ",
"    .XXXX.XXXXXXXXXXXXXXXXXX.XXXXX.    ",
"    .XXXX.XXX...XX...XX...XX.XXXXX.    ",
"     .............................     ",
"                                       ",
"                                       ",
"                                       ",
"                                       ",
"                                       ",
"                                       ",
"                                       ",
"                                       ",
"                                       "};
