/* XPM */
static char *cassete_xpm[] = {
/* width height ncolors chars_per_pixel */
"31 21 6 1",
/* colors */
"` c #000000",
"a c #757575",
"b c #BEBEBE",
"c c #CFCF00",
"d c None",
"e c #FFFF00",
/* pixels */
"d`````````````````````````````d",
"`dddddddddddddddddddddddddddaa`",
"`d`bbbbbbbbbbbbbbbbbbbbbbbb`aa`",
"`dbbbbbbbbbbbbbbbbbbbbbbbbbbaa`",
"`dbbbbbbbbbbbbbbbbbbbbbbbbbbaa`",
"`dbbaaaabbbbbbbbbbbbbbaaaabbaa`",
"`dbaa```abb`````````baa```abaa`",
"`dba`d`d`db`cccccaadba`d`d`daa`",
"`dba``a``db`ceeecbbdba``a``daa`",
"`dba`d`d`db`ceeecbbdba`d`d`daa`",
"`dbba```ddb`ddddddddbba```ddaa`",
"`dbbbddddbbbbbbbbbbbbbbddddbaa`",
"`dbbbbbbbbbbbbbbbbbbbbbbbbbbaa`",
"`dbbbbbbbbbbbbbbbbbbbbbbbbbbaa`",
"`dbbbbbdddddddddddddddaabbbbaa`",
"`dbbbbdbbbbbbb`dbbbbbbb`bbbbaa`",
"`dbbbbdbbb`dbbbbbb`dbbbaabbbaa`",
"`d`bbdbb`dbbbbbbbbbb`dbb`bb`aa`",
"`aaaa`aaaaaaaaaaaaaaaaaa`aaaaa`",
"`aaaa`aaa```aa```aa```aa`aaaaa`",
"d`````````````````````````````d"
};
