/* XPM */
static char * cxfin_on_xpm[] = {
/* width height ncolors chars_per_pixel */
"62 22 5 1",
/* colors */
" 	s None	c none",
".	c black",
"X	c #643000",
"o	c white",
"O	c #986430",
/* pixels */
"  ..........................................................  ",
" .XXXXXXXXXXXXXXXXXXXXXXXXXXXXXXXXXXXXXXXXXXXXXXXXXXXXXXXXXX. ",
".XXXXXXXXXXXXXXXXXXXXXXXXXXXXXXXXXXXXXXXXXXXXXXXXXXXXXXXXXXXo.",
".XXOOOOOOOOOOOOOOOOOOOOOOOOOOOOOOOOOOOOOOOOOoOOOOOOOOOOOOOOOo.",
".XXOOOOOOOoooOOOOOOOOOOOOOOOOOOOOOOOOOOOOOOOoOooooOOoOOOOOOOo.",
".XXOOOOOOoOOOoOOOOOOOOOOOOOOOOOOOOOOOOOOOOOoOOoOOOOOOOOOOOOOo.",
".XXOOOOOOoOOOOOOooOOoooOOoooOOOooOOoOOOoOOOoOOoOOOOooOoooOOOo.",
".XXOOOOOOoOOOOOoOOoOoOOoOoOOoOoOOoOOoOoOOOoOOOoooOOOoOoOOoOOo.",
".XXOOOOOOoOOOOOoOOoOoOOoOoOOoOooooOOOoOOOOoOOOoOOOOOoOoOOoOOo.",
".XXOOOOOOoOOOoOoOOoOoOOoOoOOoOoOOOOOoOoOOoOOOOoOOOOOoOoOOoOOo.",
".XXOOOOOOOoooOOOooOOoOOoOoOOoOOooOOoOOOoOoOOOOoOOOOOoOoOOoOOo.",
".XXOOOOOOOOOOOOOOOOOOOOOOOOOOOOOOOOOOOOOOOOOOOOOOOOOOOOOOOOOo.",
".XXOOOOOOOOOOOOOOOOOOOOOOOOOOOOOOOOOOOOOOOOOOOOOOOOOOOOOOOOOo.",
".XXOOOOOOOOOOOOOOOOOOOOOOOOOOOOOOOOOOOOOOOOOOOOOOOOOOOOOOOOOo.",
".XXOOOOOOOOOOOOOOOOOOOOOOOOOOOOOOOOOOOOOOOOOOOOOOOOOOOOOOOOOo.",
".XXOOOOOOOOOOOOOOOOOOOOOOOOOOOOOOOOOOOOOOOOOOOOOOOOOOOOOOOOOo.",
".XXOOOOOOOOOOOOOOOOOOOOOOOOOOOOOOOOOOOOOOOOOOOOOOOOOOOOOOOOOo.",
".XXOOOOOOOOOOOOOOOOOOOOOOOOOOOOOOOOOOOOOOOOOOOOOOOOOOOOOOOOOo.",
".XXOOOOOOOOOOOOOOOOOOOOOOOOOOOOOOOOOOOOOOOOOOOOOOOOOOOOOOOOOo.",
".XXOOOOOOOOOOOOOOOOOOOOOOOOOOOOOOOOOOOOOOOOOOOOOOOOOOOOOOOOOo.",
" .oooooooooooooooooooooooooooooooooooooooooooooooooooooooooo. ",
"  ..........................................................  "};
