/* XPM */
static char * disk_write_xpm[] = {
/*Filename: blank39.xpm Size:39x39*/
"39 39 7 1",
/**/
" 	c #B0B0B0",
".	c navy blue",
"X	c black",
"o	c yellow",
"O	c white",
"+	c slate grey",
"@	c red",
/**/
"                                       ",
"                                       ",
"                                       ",
"                                       ",
"     ...XXXXXXXXXXXXXXXXXXXXXX...      ",
"    ....XooooooooooooooooooooX....     ",
"    ....XooooooooooooooooooooX....     ",
"    .XO.XooooooooooooooooooooX....     ",
"    .X+.XOOOOOOOOOOOOOOOOOOOOX....     ",
"    .XX.XOOOOOOOOOOOOOOOOOOOOX....     ",
"    ....XOOOOOOOOOOOOOOOOOOOOX....     ",
"    ....XOOOO@@@@@@@@@@@OOOOOX....     ",
"    ....XOOOO@@@@@@@@@@@OOOOOX....     ",
"    ....XOOOO@@@@@@@@@@@OOOOOX....     ",
"    ....XOOOO@@@@@@@@@@@OOOOOX....     ",
"    ....XOOOO@@@@@@@@@@@OOOOOX....     ",
"    ....XOOOO@@@@@@@@@@@OOOOOX....     ",
"    ....XOOOO@@@@@@@@@@@OOOOOX....     ",
"    ....XOOOO@@@@@@@@@@@OOOOOX....     ",
"    ....XOOOO@@@@@@@@@@@OOOOOX....     ",
"    ....XOOOO@@@@@@@@@@@OOOOOX....     ",
"    .....X@@@@@@@@@@@@@@@@@XX.....     ",
"    .......@@@@@@@@@@@@@@@........     ",
"    ........@@@@@@@@@@@@@.........     ",
"    .........@@@@@@@@@@@..........     ",
"    ......++++@@@@@@@@@++++.......     ",
"    .....+.....@@@@@@@++++++......     ",
"    .....+.....+@@@@@+++++++......     ",
"    .....+.....+O@@@++++++++......     ",
"    .....+.....+O+@+++++++++......     ",
"    .....+.....+O+++++++++++......     ",
"    .....+.....+O+++++++++++......     ",
"     ....+++++++++++++++++++......     ",
"      ...XXXXXXXXXXXXXXXXXXX.....      ",
"                                       ",
"                                       ",
"                                       ",
"                                       ",
"                                       "};
