/* XPM */
static char * disk_read_xpm[] = {
/*Filename: blank39.xpm Size:39x39*/
"39 39 7 1",
/**/
" 	c #B0B0B0",
".	c navy blue",
"X	c black",
"o	c yellow",
"O	c white",
"+	c slate grey",
"@	c red",
/**/
"                                       ",
"                                       ",
"                                       ",
"                                       ",
"     ...XXXXXXXXXXXXXXXXXXXXXX...      ",
"    ....XooooooooooooooooooooX....     ",
"    ....XooooooooooooooooooooX....     ",
"    .XO.XooooooooooooooooooooX....     ",
"    .X+.XOOOOOOOOOOOOOOOOOOOOX....     ",
"    .XX.XOOOOOOOOOOOOOOOOOOOOX....     ",
"    ....XOOOOOOOOOOOOOOOOOOOOX....     ",
"    ....XOOOOOOOOOO@OOOOOOOOOX....     ",
"    ....XOOOOOOOOO@@@OOOOOOOOX....     ",
"    ....XOOOOOOOO@@@@@OOOOOOOX....     ",
"    ....XOOOOOOO@@@@@@@OOOOOOX....     ",
"    ....XOOOOOO@@@@@@@@@OOOOOX....     ",
"    ....XOOOOO@@@@@@@@@@@OOOOX....     ",
"    ....XOOOO@@@@@@@@@@@@@OOOX....     ",
"    ....XOOO@@@@@@@@@@@@@@@OOX....     ",
"    ....XOO@@@@@@@@@@@@@@@@@OX....     ",
"    ....XOOOOO@@@@@@@@@@@OOOOX....     ",
"    .....XXXXX@@@@@@@@@@@XXXX.....     ",
"    ..........@@@@@@@@@@@.........     ",
"    ..........@@@@@@@@@@@.........     ",
"    ..........@@@@@@@@@@@.........     ",
"    ......++++@@@@@@@@@@@++.......     ",
"    .....+....@@@@@@@@@@@+++......     ",
"    .....+....@@@@@@@@@@@+++......     ",
"    .....+....@@@@@@@@@@@+++......     ",
"    .....+.....+O+++++++++++......     ",
"    .....+.....+O+++++++++++......     ",
"    .....+.....+O+++++++++++......     ",
"     ....+++++++++++++++++++......     ",
"      ...XXXXXXXXXXXXXXXXXXX.....      ",
"                                       ",
"                                       ",
"                                       ",
"                                       ",
"                                       "};
