/* XPM */
static char * door_run_xpm[] = {
/*Filename: blank39.xpm Size:39x39*/
"39 39 7 1",
/**/
" 	c #B0B0B0",
".	c sky blue",
"X	c black",
"o	c white",
"O	c orange",
"+	c gold",
"@	c firebrick",
/**/
"                                       ",
"                                       ",
"                                       ",
"   ................................    ",
"   .XXXXXXXXXXXXX..................    ",
"   .XXooooooooooX..................    ",
"   .XOX+o+o+o+o+X..................    ",
"   .X@OXo+o+o+o+X...XXX............    ",
"   .XO@OXo+o+o+oX...XXXX...........    ",
"   .X@O@OXo+o+o+X..XXXXX...........    ",
"   .XO@O@OXo+o+oX..XXXXX...........    ",
"   .X@O@O@X+o+o+X...XXX............    ",
"   .XO@O@OXo+o+oXXXX...XXXXX.......    ",
"   .X@O@O@X+o+o+XXXXXXXXXXXXX......    ",
"   .XO@O@OXo+o+oX...XXXXX..XX......    ",
"   .X@O@O@X+o+o+X.....XXX..XX......    ",
"   .XO@OXOXo+o+oX.....XXX...XX.....    ",
"   .X@O@X@X+o+o+X.....XXX...XX.....    ",
"   .XO@O@OXo+o+oX.....XXX..........    ",
"   .X@O@O@Xo+oo+X....XXXX..........    ",
"   .XO@O@OX+++++X...XXXXXX...XX....    ",
"   .XXO@O@XXXXXXX...XX..XXX.XXXX...    ",
"   ...XO@OX+o+o+o...XX...XXXXX.X...    ",
"   ....XO@Xo+o+o+o.XX.....XXX......    ",
"   .....XOX+o+o+o+oXX..............    ",
"   ......XXo+o+o+o+XX..............    ",
"   ........+o+o+o+XXX+.............    ",
"   .........+o+o+o+o+o+o+..........    ",
"   ..........+o+o+o+o+o+o+.........    ",
"   ...........+o+o+o+o+o+o+o+......    ",
"   ............+o+o+o+o+o+o+o+.....    ",
"   .............+o+o+o+o+o+o+o+....    ",
"   ..............+o+o+o+o+o+o+o+...    ",
"   .............+o+o+o+o+o+o+o+o+..    ",
"   ................................    ",
"                                       ",
"                                       ",
"                                       ",
"                                       "};
