/* XPM */
static char * envoi_xpm[] = {
/* width height ncolors chars_per_pixel */
"62 22 5 1",
/* colors */
" 	c none",
".	c black",
"X	c white",
"o	c #00B800",
"O	c #006400",
/* pixels */
"  ..........................................................  ",
" .XXXXXXXXXXXXXXXXXXXXXXXXXXXXXXXXXXXXXXXXXXXXXXXXXXXXXXXXXX. ",
".XoooooooooooooooooooooooooooooooooooooooooooooooooooooooooOO.",
".XoooooooooooooooooooooooooooooooooooooooooooooooooooooooooOO.",
".XoooooooXXXXooooooooooooooooooXoooooooooooooooooooooooooooOO.",
".XoooooooXoooooooooooooooooooooooooooooooooooooooooooooooooOO.",
".XoooooooXooooXXXooXoooXooXXooXXoooooooooooooooooooooooooooOO.",
".XoooooooXXXooXooXooXoXooXooXooXoooooooooooooooooooooooooooOO.",
".XoooooooXooooXooXooXoXooXooXooXoooooooooooooooooooooooooooOO.",
".XoooooooXooooXooXoooXoooXooXooXoooooooooooooooooooooooooooOO.",
".XoooooooXXXXoXooXoooXooooXXoooXoooooooooooooooooooooooooooOO.",
".XoooooooooooooooooooooooooooooooooooooooooooooooooooooooooOO.",
".XoooooooooooooooooooooooooooooooooooooooooooooooooooooooooOO.",
".XoooooooooooooooooooooooooooooooooooooooooooooooooooooooooOO.",
".XoooooooooooooooooooooooooooooooooooooooooooooooooooooooooOO.",
".XoooooooooooooooooooooooooooooooooooooooooooooooooooooooooOO.",
".XoooooooooooooooooooooooooooooooooooooooooooooooooooooooooOO.",
".XoooooooooooooooooooooooooooooooooooooooooooooooooooooooooOO.",
".XoooooooooooooooooooooooooooooooooooooooooooooooooooooooooOO.",
".XOOOOOOOOOOOOOOOOOOOOOOOOOOOOOOOOOOOOOOOOOOOOOOOOOOOOOOOOOOO.",
" .OOOOOOOOOOOOOOOOOOOOOOOOOOOOOOOOOOOOOOOOOOOOOOOOOOOOOOOOOO. ",
"  ..........................................................  "};
