/* XPM */
static char * film_xpm[] = {
/*Filename: blank39.xpm Size:39x39*/
"39 39 7 1",
/**/
" 	c #B0B0B0",
".	c black",
"X	c white",
"o	c grey",
"O	c slate grey",
"+	c cyan",
"@	c sea green",
/**/
"                                       ",
"                                       ",
"                                       ",
"                                       ",
"                                       ",
"           ............                ",
"        ...Xoo.OOOOXooO...             ",
"      ..XoooooO....ooooooO..           ",
"     .XoXXXXoooXXXXoooXXXXoO.          ",
"    .Xo.OOOOXo.OOOOXo.OOOOXoO.         ",
"    .XoO....ooO....ooO....ooO.         ",
"    .oXXoooooooXXXXoooooooXOO.         ",
"     .ooXXXooo.OOOOXooooXXOO.          ",
"      ..oooXXXO....XXXXXOO..           ",
"      .o..OooooooooooooO..O...         ",
"      ...o..............O.......       ",
"     ..+@...o..o..o..O...+@.@.o...     ",
"    .O.@@.+@..........+@.+@.+@...o.    ",
"    .O..@.+@.@+@.@+@.@+@.@..+@.@+...   ",
"    .o.o...@.@+@.@@@.@@...O.@@.@+@..   ",
"    .oO..o..............O..O...@+@@.   ",
"     .XXO...o..o..o..O...Ooo....@.o.   ",
"      ..XXXO..........Oooo..  ......   ",
"        ...XXXXXXXXXXXo...   ..o..@.   ",
"           ............    ..o...+@.   ",
"                          ....+@.+@.   ",
"                          .o.@+@.@..   ",
"                          ...@@...o.   ",
"                          ..o..o...    ",
"                          .+.....      ",
"                          .+@..        ",
"                          ..@.         ",
"                          ....         ",
"                           .o.         ",
"                            ..         ",
"                                       ",
"                                       ",
"                                       ",
"                                       "};
