/* XPM */
static char * next_xpm[] = {
/*ø */
"54 28 4 1",
/**/
" 	c #AEA6A2",
".	c black",
"X	c #555151",
"o	c white",
/*ø¨*/
"                                                      ",
"                                                      ",
"                                                      ",
"                     .X        ...                    ",
"                     ...       .XX                    ",
"                     .XX.X     .XX                    ",
"                     .XXX..    .XX                    ",
"                     .XXXXX.X  .XX                    ",
"                     .XXXXXX.. .XX                    ",
"                     .XXXXXXXXo.XX                    ",
"                     .XXXXXXXo .XX                    ",
"                     .XXXXXoo  .XX                    ",
"                     .XXXoo    .XX                    ",
"                     .Xoo      .XX                    ",
"                     oo        .oo                    ",
"                                                      ",
"                                                      ",
"                 ..   .             .                 ",
"                 ..   .             .                 ",
"                 . .  .  ..  .   . ...                ",
"                 . .  . .  .  . .   .                 ",
"                 .  . . ....   .    .                 ",
"                 .  . . .     . .   .                 ",
"                 .   .. .  . .   .  .                 ",
"                 .   ..  ..  .   .  ..                ",
"                                                      ",
"                                                      ",
"                                                      "};
