/* XPM */
static char * nouveau_xpm[] = {
/*Filename: blank39.xpm Size:39x39*/
"39 39 12 1",
/**/
" 	c #B0B0B0",
".	c black",
"X	c dark slate grey",
"o	c lemon chiffon",
"O	c grey",
"+	c slate grey",
"@	c white",
"#	c peru",
"$	c orange",
"%	c gold",
"&	c yellow",
"*	c sea green",
/**/
"                                       ",
"                                       ",
"                                       ",
"                                       ",
"          .......                      ",
"          XoO+X..                      ",
"          XoO+X..                      ",
"   OX+O++XX............+               ",
"   .Xo@@oOO++XX.........               ",
"   +..XX...............+               ",
"    .#$%%%%%%%$%%%$$##.                ",
"    .$%&&&&&&&&&%&%%$$.                ",
"    .$%&&&&&&&%&&&%%$$.                ",
"    .$%&&&&&&&&&%&%%$$.                ",
"    .$%&&&&&&&%&&&%%$$.                ",
"    .$%&&&&&&&&&%&%%$$.                ",
"    .$%&&&&&&&%&&&%%$$.                ",
"    .$%&&&&&&&&&%&%%$$.                ",
"    .$%&&&&&&&%&&&%%$$.                ",
"    .$%&&&&&&&&&%&%%$$.                ",
"    .$%&&&&&&&%&&&%%***+++++++++++     ",
"    .$%&&&&&&&&&%&%%..************+    ",
"    .$%&&&&&&&%&&&%%..************+    ",
"    .$%&&&&&&&&&%&%%..************+    ",
"    .$%&&&&&&&%&&&%%..************+    ",
"    .$%&&&&&&&&&%&%%..************+    ",
"    .$%&&&&&&&%&&&%%..************+    ",
"    .$%&&&&&&&&&%&%%..************+    ",
"    .$%&&&&&&&%&&&%%*.*++*+++*+++*+    ",
"    .$%&&&&&&&&&%&%%*.*@+*+@+*+@+*+    ",
"    .$%&&&&&&&%&&&%%*.*++*+++*+++*+    ",
"    .$%&&&&&&&&&%&%%..************+    ",
"    .$%&&&&&&&%&&&%%***++++++++++++    ",
"   OX+O++XX............+               ",
"   .Xo@@oOO++XX.........               ",
"   +..XX...............+               ",
"                                       ",
"                                       ",
"                                       "};
