/* XPM */
static char *pf_xpm[] = {
/* width height ncolors chars_per_pixel */
"48 61 15 1",
/* colors */
"` c #71545B",
"a c #C0CEBC",
"b c #3D3035",
"c c #5E504B",
"d c #544241",
"e c #ABAD9B",
"f c #B5BDA8",
"g c #A59E8B",
"h c #AFB5A5",
"i c #918170",
"j c #B8C0B0",
"k c #B1B79F",
"l c #9D8D7A",
"m c #73655E",
"n c #847468",
/* pixels */
"ggggggegeeeeeeeeeeheehhhkkhhkfkkfkhkkkkkfkkkkkkb",
"ggggeeegeeeehhehhehhhhhehkhkfkkhkkfkhfkfkfkffkka",
"ggggeeeeeeehhhhhhhhhheeeehhhhkhfkfhkhhhfkhkfhhkb",
"geeeeeeeeeeeeekhheheeglnnnlhhkkfhhhkkfhhfhfkfkka",
"ggeeeeeehheeheeeeglnccccddcccmnghhhhhkffhffhffhb",
"eeeeeeeheheekeegncccc``cccddddccghhhhffffffffffa",
"eeeeeeeeeeeeeel``ccddcccddddddddciekkjffffhhfffb",
"eeeeeehhhehegnccddbddddcccdddddddcigehffjfhhhhfa",
"eeeheeehhegmcddddddbddddcdddccdddddcnghhffffhfhb",
"eeeehheeegccddddbbbbbddddddddcdddddddcghfhjjjjfa",
"eeheeheeg`ccddbdbbbbbbddddddddddddddddnehhfjfjfb",
"eeheeeeencddddbdbbbdbbbbdcddddddddddddcgffhfjjja",
"eeekeeei`dddbdbbbbbbbdbddddcdddddbdddddmkhffjffb",
"eeheeeecddddbbbbbbbbbbdbddddcccddbdddddcehfjfjfa",
"hehhehgdddbbbbbbbbbbbbddddcc``ddddbdddddnkjjfffb",
"eeeeheldddddbbbdbbddddddd```c``cddddddddcgffjjja",
"eehkhendddbdbbbbdddddcddcc```n``c`cdddddcihjjjjb",
"eekhhhnddbbbdbbddcddccdccnniinnm`n`ccd`cc`hfjfja",
"ehkkeeiddbbbbbdccddddcc`nniiiinninn`cc`ccckjjjjb",
"ekkkhhiddbbbbdd`cdddccnigehkglilinnnc`ccccejjjja",
"hkhhheiddbbbdddc`dccc`llgehfeglglili`cccccejjjjb",
"khhhkelddbddbd```cc``nlggkhkkggggggln`cdccejjjja",
"ehhkhhgdddbbdd`nm``nnlggekhelgggggglncccccejjaab",
"hhhhheedddddcnnninniillgekegeegggggliccccmejjjja",
"hhkkkkh`dddd`nnnililiilgffkhkkheggglicccccejjaab",
"kkkhhke`cddd`nnn`````nlgekkkhhehgggglcdccckjjaja",
"hhhkhkl`cddcmnm`nnnn`c`mlgeeegggeggliddccnfjjjab",
"hkkkhhi``ddc`nn``c``n```nlgglnmnllgllcccmejaaaja",
"kkfhkknm``d`mnn`cccd``ccnllln`cccmnlldccgjjjjajb",
"ehhkfkn``cc`nilinnn`mn``nlglnnnlllnniccckjajjaja",
"khfkhhl`c```nilliinnnllnnlgin`dcnniiiccljjajaaab",
"hhhhkhg`````nnlgllilllliiiglln`c``niicnhjjjajjja",
"kkhkhhk``cmmnilgggllggllilglliiiniilichjjajjjaab",
"kkkffhhn````nilgggggggllilglgliillgglejjjjjjaaaa",
"khkhffhl````nnigggeeggliiggggeggggggljajaaajjaab",
"hkkhfffen`m`nnilggggglinigglgeeeeegggjajjjaajaja",
"hkkhkhhhhe``mnnllggglninieelgggeggglejajjajaaajb",
"hhkkhfhfhh```nnilllllnccniiillegegglkjjjajjaajja",
"khhhfhffhh`m`nnnnillll`c`mniggggggglfajjjjjaaajb",
"khhhkffhfhm`mnnniiiillin`ilggggggllejjaaaaajjaaa",
"hhkhhfhhhe```nniinnnnilgllllllgllllhjjaajajjjajb",
"hhhkkhffhgc``nniliinnnnniillliilliljjjaaajjajjja",
"hkehkhfkki`c`nnniiilnillliinnnilliljjaaaajjaajab",
"ekhkhkhken``c`nniniiinnnilllllllliljajjjajjaaaja",
"heehkeennnc````mnnnillnnnnilllllilejjaajjaajajjb",
"eeeheencin```cc`nnnnilllllllliiiiifjjjjjjajjaaja",
"eeheendnin`c``cc`mnniilllllliiiiigjjajjjjjajjjjb",
"eeeegddniiccc`ccc`mniillgllliniiifjjjjjjjaajjjja",
"eeencddnii`cccccccccmniilliinnnnhjjjjjjjajjjjjjb",
"eg`ddddgiilcdcc```ccc`nniinnnnnejjjjjjjaaajjjjja",
"ncdddddgelegcccdcccccc```nnn`nhjjjjjjjjjjjjjjjjb",
"dddddddlhggh`ccccccccccccccc`ejjjffjjfjjjjjjjjja",
"ddbddddhjhghhccccccddcdccc``lhjjjjfjjjjfjfjffjjb",
"dddbdddjajgehgccdcdcddcc``nngkfhjfjjjjfffjjfjfja",
"bddddddjajeehhmccdcddcdcmnnliehfjfjhfffffjhhfjjb",
"bbdddddhajeekjeccccccc`nnnieiehhhjfhfhffhfhhhjha",
"dbbdbddeajhfkfflnn````nnniiegemnehfhfhjhhjhfhfhb",
"bdddbddljjffhfjhlinnnnnnninlgenccngkhhhhhjhhfhfa",
"bdbdbddnjfehkjengiiinnnninnieeecdccnehhehjkkhhhb",
"dbddddddhheennmcnigginnni`nlehfcdddccneeehhhhhha",
"bbddbdddggn`nigniliglnninciehehgddddddcieeeeeeeb"
};
