/* XPM */
static char * phone_xpm[] = {
/*Filename: blank39.xpm Size:39x39*/
"39 39 6 1",
/**/
" 	c #B0B0B0",
".	c black",
"X	c white",
"o	c yellow",
"O	c #808000",
"+	c #C0C0C0",
/**/
"                                       ",
"                                       ",
"                                       ",
"                                       ",
"                                       ",
"                                       ",
"             ......                    ",
"           ..Xooooo...                 ",
"          .oooXXXXXooo...              ",
"         .ooooOO..oXXXooo..            ",
"        .ooooOO.Xo.oooXXooo..          ",
"        ..ooOOO.o+O.ooooXXooo..        ",
"        .o..O...o+O.Ooo..OXXooo.       ",
"        .ooO.+ooo+O.OO.Xo.OoXooo.      ",
"         .O.+ooooooo...o+O.OoXooo.     ",
"          .+ooXXOooooo.o+O.OooXooo.    ",
"         .+oooO.XXOooooo+O.OooXoooX.   ",
"        .+ooXXOoO.XXOooooo.OoooXXXO.   ",
"       .+oooO.XXOoO.ooooo+.Oooo+OOO.   ",
"      .+ooXXOoO.XXOooooo+O.Oooo+OOO.   ",
"     .+oooO.XXOoO.ooooo+OO..ooo+OOO.   ",
"    .+XXooooO.XXOooooo+OOO.OOoo+OO..   ",
"    .+XXXXooooO.ooooo+OOOO.OoOO...O.   ",
"    .+ooXXXXoooooooo+OOOOOO.ooo+OOO.   ",
"    .+ooooXXXXooooo+OOOOOOO..ooOOO.    ",
"    .+ooooooXXXXoo+OOOOOOOOO......     ",
"    ..++ooooooXXX+OOOOOOOOOOO..        ",
"      ..++ooooooXOOOOOOOOOO..          ",
"        ..++oooooOOOOOOOO..            ",
"          ..++oooOOOOOO..              ",
"            ..++oOOOO..                ",
"              ..+OO..                  ",
"                ...                    ",
"                                       ",
"                                       ",
"                                       ",
"                                       ",
"                                       ",
"                                       "};
