/* XPM */
static char * play_xpm[] = {
/*81*/
"54 28 4 1",
/*`0*/
" 	c #AEA6A2",
".	c black",
"X	c #555151",
"o	c white",
/*81*/
"                                                      ",
"                                                      ",
"                       .X                             ",
"                       ...                            ",
"                       .XX.X                          ",
"                       .XXX..                         ",
"                       .XXXXX.X                       ",
"                       .XXXXXX..                      ",
"                       .XXXXXXXXo                     ",
"                       .XXXXXXXo                      ",
"                       .XXXXXoo                       ",
"                       .XXXoo                         ",
"                       .Xoo                           ",
"                       oo                             ",
"                                                      ",
"                                                      ",
"                   ....  .                            ",
"                   .   . .                            ",
"                   .   . . ...  .  .                  ",
"                   ....  .    . .  .                  ",
"                   .     .  ... . .                   ",
"                   .     . .  . . .                   ",
"                   .     . .  .  ..                   ",
"                   .     .  .. . .                    ",
"                                 .                    ",
"                                .                     ",
"                                                      ",
"                                                      "};
