/* XPM */
static char * prev_xpm[] = {
/*╚а*/
"54 28 4 1",
/*ша*/
" 	c #AEA6A2",
".	c black",
"X	c #555151",
"o	c white",
/*ша*/
"                                                      ",
"                                                      ",
"                                                      ",
"                    ...        ..                     ",
"                    .XX       ..o                     ",
"                    .XX     ..XXo                     ",
"                    .XX    ..XXXo                     ",
"                    .XX  ..XXXXXo                     ",
"                    .XX ..XXXXXXo                     ",
"                    .XX.XXXXXXXXo                     ",
"                    .XX  XXXXXXXo                     ",
"                    .XX    XXXXXo                     ",
"                    .XX     XXXXo                     ",
"                    .XX       XXo                     ",
"                    .oo         o                     ",
"                                                      ",
"                                                      ",
"                 ....                                 ",
"                 .   .                                ",
"                 .   . . .  ..  .   .                 ",
"                 ....  ..  .  . .   .                 ",
"                 .     .   ....  . .                  ",
"                 .     .   .     . .                  ",
"                 .     .   .  .   .                   ",
"                 .     .    ..    .                   ",
"                                                      ",
"                                                      ",
"                                                      "};
