/* XPM */
static char * printer_xpm[] = {
/*Filename: blank39.xpm Size:39x39*/
"39 39 7 1",
/**/
" 	c #B0B0B0",
".	c black",
"X	c white",
"o	c dark slate grey",
"O	c gray50",
"+	c yellow",
"@	c sienna",
/**/
"                                       ",
"                                       ",
"                                       ",
"                                       ",
"                                       ",
"               ....................    ",
"               .XXXXXXXXXXXXXXXXXX.    ",
"              .XXXXXXXXXXXXXXXXXX..    ",
"              .XXoooooooooooooXXX..    ",
"             .XXXXXXXXXXXXXXXXXX.O.    ",
"             .XXoooooooooooooXXX.O.    ",
"            .XXXXXXXXXXXXXXXXXX.OO.    ",
"            .XXoooooooooooooXXX.OO.    ",
"           .XXXXXXXXXXXXXXXXXX.....    ",
"           .XXooooooooooooXXXX.        ",
"          .XXXXXXXXXXXXXXXXXX.         ",
"        ...XXXXXXXXXXXXXXXXXX......    ",
"       .+.XXXXXXXXXXXXXXXXXX.@+@+..    ",
"      .+@....................o@+.+.    ",
"     .+@ooooooooooooooooooooo@+.+@.    ",
"    .+@+@+@+@+@+@+@+@+@+@+@+@+.+@+.    ",
"   ...........................+@+@.    ",
"   .@+@+@+@+@+@+@+@+@+@+@+@+@.@+@+.    ",
"   .+@+@+@+@+@+@+@........X@+.+@+@.    ",
"   .@+@+@+@+@+@+@+.oooooooX+@.@+@+.    ",
"   .+@+@+@+@+@+@+@.oooooooX@+.+@+@.    ",
"   .@+@+@+@+@+@+@+.oooooooX+@.@+@.     ",
"   .+@+@+@+@+@+@+@.XXXXXXXX@+.+@.oo    ",
"   .@+@+@+@+@+@+@+@+@+@+@+@+@.@.oo     ",
"   .+@+@+@+@+@+@+@+@+@+@+@+@+..oo      ",
"   ...........................oo       ",
"     oooooooooooooooooooooooooo        ",
"      oooooooooooooooooooooooo         ",
"                                       ",
"                                       ",
"                                       ",
"                                       ",
"                                       ",
"                                       "};
