/* XPM */
static char *printera_xpm[] = {
/* width height ncolors chars_per_pixel */
"39 39 7 1",
/* colors */
"` c #000000",
"a c #7F7F7F",
"b c #A0522D",
"c c #2F4F4F",
"d c #B0B0B0",
"e c #FFFFFF",
"f c #FFFF00",
/* pixels */
"ddddddddddddddddddddddddddddddddddddddd",
"ddddddddddddddddddddddddddddddddddddddd",
"ddddddddddddddddddddddddddddddddddddddd",
"ddddddddddddddddddddddddddddddddddddddd",
"ddddddddddddddddddddddddddddddddddddddd",
"ddddddddddddddd````````````````````dddd",
"ddddddddddddddd`eeeeeeeeeeeeeeeeee`dddd",
"dddddddddddddd`ee`eeee``````eeeee``dddd",
"dddddddddddddd`ee`eeeee`eee``eeee``dddd",
"ddddddddddddd`ee`e`eeee`eeee`eee`a`dddd",
"ddddddddddddd`ee`e`eeee`eee``eee`a`dddd",
"dddddddddddd`ee`eee`eee`````eee`aa`dddd",
"dddddddddddd`ee`````eee`eeee`ee`aa`dddd",
"ddddddddddd`eee`eee`eee`eeee`e`````dddd",
"ddddddddddd`ee`eeeee`ee`eee``e`dddddddd",
"dddddddddd`ee```eee`````````e`ddddddddd",
"dddddddd```eeeeeeeeeeeeeeeeee``````dddd",
"ddddddd`f`eeeeeeeeeeeeeeeeee`bfbf``dddd",
"dddddd`fb````````````````````cbf`f`dddd",
"ddddd`fbcccccccccccccccccccccbf`fb`dddd",
"dddd`fbfbfbfbfbfbfbfbfbfbfbfbf`fbf`dddd",
"ddd```````````````````````````fbfb`dddd",
"ddd`bfbfbfbfbfbfbfbfbfbfbfbfb`bfbf`dddd",
"ddd`fbfbfbfbfbfbfb````````ebf`fbfb`dddd",
"ddd`bfbfbfbfbfbfbf`cccccccefb`bfbf`dddd",
"ddd`fbfbfbfbfbfbfb`cccccccebf`fbfb`dddd",
"ddd`bfbfbfbfbfbfbf`cccccccefb`bfb`ddddd",
"ddd`fbfbfbfbfbfbfb`eeeeeeeebf`fb`ccdddd",
"ddd`bfbfbfbfbfbfbfbfbfbfbfbfb`b`ccddddd",
"ddd`fbfbfbfbfbfbfbfbfbfbfbfbf``ccdddddd",
"ddd```````````````````````````ccddddddd",
"dddddccccccccccccccccccccccccccdddddddd",
"ddddddccccccccccccccccccccccccddddddddd",
"ddddddddddddddddddddddddddddddddddddddd",
"ddddddddddddddddddddddddddddddddddddddd",
"ddddddddddddddddddddddddddddddddddddddd",
"ddddddddddddddddddddddddddddddddddddddd",
"ddddddddddddddddddddddddddddddddddddddd",
"ddddddddddddddddddddddddddddddddddddddd"
};
