/* XPM */
static char * retour_xpm[] = {
/* width height ncolors chars_per_pixel */
"62 22 5 1",
/* colors */
" 	c none",
".	c black",
"X	c white",
"o	c #986430",
"O	c #643000",
/* pixels */
"  ..........................................................  ",
" .XXXXXXXXXXXXXXXXXXXXXXXXXXXXXXXXXXXXXXXXXXXXXXXXXXXXXXXXXX. ",
".XoooooooooooooooooooooooooooooooooooooooooooooooooooooooooOO.",
".XoooooooooooooooooooooooooooooooooooooooooooooooooooooooooOO.",
".XoooooooXXXXooooooooXoooooooooooooooooooooooooooooooooooooOO.",
".XoooooooXoooXoooooooXoooooooooooooooooooooooooooooooooooooOO.",
".XoooooooXoooXooXXooXXXooXXooXooXoXoXXoooooooooooooooooooooOO.",
".XoooooooXXXXooXooXooXooXooXoXooXoXXoooooooooooooooooooooooOO.",
".XoooooooXoXoooXXXXooXooXooXoXooXoXooooooooooooooooooooooooOO.",
".XoooooooXooXooXoooooXooXooXoXooXoXooooooooooooooooooooooooOO.",
".XoooooooXoooXooXXooooXooXXoooXXXoXooooooooooooooooooooooooOO.",
".XoooooooooooooooooooooooooooooooooooooooooooooooooooooooooOO.",
".XoooooooooooooooooooooooooooooooooooooooooooooooooooooooooOO.",
".XoooooooooooooooooooooooooooooooooooooooooooooooooooooooooOO.",
".XoooooooooooooooooooooooooooooooooooooooooooooooooooooooooOO.",
".XoooooooooooooooooooooooooooooooooooooooooooooooooooooooooOO.",
".XoooooooooooooooooooooooooooooooooooooooooooooooooooooooooOO.",
".XoooooooooooooooooooooooooooooooooooooooooooooooooooooooooOO.",
".XoooooooooooooooooooooooooooooooooooooooooooooooooooooooooOO.",
".XOOOOOOOOOOOOOOOOOOOOOOOOOOOOOOOOOOOOOOOOOOOOOOOOOOOOOOOOOOO.",
" .OOOOOOOOOOOOOOOOOOOOOOOOOOOOOOOOOOOOOOOOOOOOOOOOOOOOOOOOOO. ",
"  ..........................................................  "};
