/* XPM */
static char * rewind_xpm[] = {
/*ð */
"54 28 4 1",
/*ð¨*/
" 	c #AEA6A2",
".	c black",
"X	c white",
"o	c #555151",
/*è¨*/
"                                                      ",
"                                                      ",
"                                                      ",
"                         ..        ..                 ",
"                        ..X       ..X                 ",
"                      ..ooX     ..ooX                 ",
"                     ..oooX    ..oooX                 ",
"                   ..oooooX  ..oooooX                 ",
"                  ..ooooooX ..ooooooX                 ",
"                 .ooooooooX.ooooooooX                 ",
"                   oooooooX  oooooooX                 ",
"                     oooooX    oooooX                 ",
"                      ooooX     ooooX                 ",
"                        ooX       ooX                 ",
"                          X         X                 ",
"                                                      ",
"                                                      ",
"          ....               .           .            ",
"          .   .                          .            ",
"          .   .  ..  .  .  . . . ..   .. .            ",
"          ....  .  . .  .  . . ..  . .  ..            ",
"          .   . ....  . . .  . .   . .   .            ",
"          .   . .     . . .  . .   . .   .            ",
"          .   . .  .   . .   . .   . .  ..            ",
"          .   .  ..    . .   . .   .  .. .            ",
"                                                      ",
"                                                      ",
"                                                      "};
