/* XPM */
static char * suite_on_xpm[] = {
/* width height ncolors chars_per_pixel */
"62 22 5 1",
/* colors */
" 	s None	c none",
".	c black",
"X	c #643000",
"o	c white",
"O	c #986430",
/* pixels */
"  ..........................................................  ",
" .XXXXXXXXXXXXXXXXXXXXXXXXXXXXXXXXXXXXXXXXXXXXXXXXXXXXXXXXXX. ",
".XXXXXXXXXXXXXXXXXXXXXXXXXXXXXXXXXXXXXXXXXXXXXXXXXXXXXXXXXXXo.",
".XXOOOOOOOOOOOOOOOOOOOOOOOOOOOOOOOOOOOOOOOOOOOOOOOOOOOOOOOOOo.",
".XXOOOOOOOoooOOOOOOOOoOOoOOOOOOOOOOOOOOOOOOOOOOOOOOOOOOOOOOOo.",
".XXOOOOOOoOOOoOOOOOOOOOOoOOOOOOOOOOOOOOOOOOOOOOOOOOOOOOOOOOOo.",
".XXOOOOOOoOOOOOoOOoOooOoooOOooOOOOOOOOOOOOOOOOOOOOOOOOOOOOOOo.",
".XXOOOOOOOoooOOoOOoOOoOOoOOoOOoOOOOOOOOOOOOOOOOOOOOOOOOOOOOOo.",
".XXOOOOOOOOOOoOoOOoOOoOOoOOooooOOOOOOOOOOOOOOOOOOOOOOOOOOOOOo.",
".XXOOOOOOoOOOoOoOOoOOoOOoOOoOOOOOOOOOOOOOOOOOOOOOOOOOOOOOOOOo.",
".XXOOOOOOOoooOOOoooOOoOOOoOOooOOOOOOOOOOOOOOOOOOOOOOOOOOOOOOo.",
".XXOOOOOOOOOOOOOOOOOOOOOOOOOOOOOOOOOOOOOOOOOOOOOOOOOOOOOOOOOo.",
".XXOOOOOOOOOOOOOOOOOOOOOOOOOOOOOOOOOOOOOOOOOOOOOOOOOOOOOOOOOo.",
".XXOOOOOOOOOOOOOOOOOOOOOOOOOOOOOOOOOOOOOOOOOOOOOOOOOOOOOOOOOo.",
".XXOOOOOOOOOOOOOOOOOOOOOOOOOOOOOOOOOOOOOOOOOOOOOOOOOOOOOOOOOo.",
".XXOOOOOOOOOOOOOOOOOOOOOOOOOOOOOOOOOOOOOOOOOOOOOOOOOOOOOOOOOo.",
".XXOOOOOOOOOOOOOOOOOOOOOOOOOOOOOOOOOOOOOOOOOOOOOOOOOOOOOOOOOo.",
".XXOOOOOOOOOOOOOOOOOOOOOOOOOOOOOOOOOOOOOOOOOOOOOOOOOOOOOOOOOo.",
".XXOOOOOOOOOOOOOOOOOOOOOOOOOOOOOOOOOOOOOOOOOOOOOOOOOOOOOOOOOo.",
".XXOOOOOOOOOOOOOOOOOOOOOOOOOOOOOOOOOOOOOOOOOOOOOOOOOOOOOOOOOo.",
" .oooooooooooooooooooooooooooooooooooooooooooooooooooooooooo. ",
"  ..........................................................  "};
