/* XPM */
static char *xtel_xpm[] = {
/* width height ncolors chars_per_pixel */
"63 63 15 1",
/* colors */
"` c #5D6C6F",
"a c #78796F",
"b c #301B1B",
"c c #27181C",
"d c #B2A78D",
"e c #190A11",
"f c #250F16",
"g c #445051",
"h c #201010",
"i c #59483E",
"j c #3F2A27",
"k c #24396C",
"l c #635E57",
"m c #978B76",
"n c #231E2E",
/* pixels */
"aamammammmmmmmmmmmmmmmmmmmmmmammmmmmmmmmmmmmmmmmmmmmmmmmmmmmmmm",
"aaammmmmmmmmmmmmmmmmmmmmmmmmmmmmamllllliilllammmmmmmmmmmmmmmmmm",
"aaaaaammmmmmmmmmmmmmmmmmmmmmmmmmmiijiilililalllliaamammmmmmmmmm",
"aaillillllallammmmmmmmmmaaalalallailllliiaalliiijjjjammmmmmmmmm",
"aiiiilllilaallaaalillllilllliijjjjjjjjbbjjjijbbbbbbbbbmmmmmmmdm",
"aiiiiiiiiiiiiijjjjbbbbbjjijjbbbcbfbbbbbbbcbccccbbccbcbmmmmmmmmm",
"aiiiiiijbjjjbbbbbbbbbbbbbccbbbcbbbcbcbccfchfcccbcbbbbjmmmmmmmmm",
"ljiiiiibfcbfbbcbfcbbcccfffccccccccbcccbcccbnnbbffhhbbbmmmmmmmmm",
"iiiiiiibhffbbcccccfhfcccbbbbbbccfcfhfhhfhhhffhehhccbbbmmdmmmmmm",
"iiiiiiibbbbbbjbbcchhhhffhhhffffcffccccccnjnnjneccccccbmmdmmmddm",
"iiiiiiibffhhehhhhfffcccnjjngggg``ll``lgggg`glgccccccbbddmdddddd",
"iiiiiiifffhhhcjjggggg`l````aaaaaaaaaaa`aa````gfbbbcccbddddddddd",
"iiiiiiibffhhhggggl````aaaaaaaaamaaaaaaaa`````gccbbcccbddddddddd",
"ijiiiiibffhhfgl``a```aaaaaaaammmmaaaaaaaa````lbbcccccbddddddddd",
"ijiiiiibfhhhfgl````aa``aaaaaaama``aaaaaaaa```gbccbccbbddddddddd",
"iniiiiibffhhfg`````aa`aaaaaaaaaaaaaaaaaaa````lncccbbbbddddddddd",
"ijiiiiibchfhfg`````aa`aaaaaaaaaaaaaaaaaa``a``gnccccbcbddddddddd",
"ijiiiiibchhffgll``````a`aaaaaaaaaaaaaaaa`````gjccccccbddddddddd",
"ijiiiiibcffhhgl```aaa``aaaaaaaaaaaaa`aaaa````ljccccfcbddddddddd",
"ijiiiiijfhhfhil```a`a`a`aaaaaaaaaaaaaaaa````lgncccccbbddddddddd",
"ijiiiiibchfhfgg````````````aaaaaa`a`````````lgncccfccbddddddmmm",
"ijiiiiijfhhhhgglll`a``````aa`aaa`aaa`a`a````ggjcffffcbdddammdmm",
"iiiiiiibchhhhgl````````````aaa`````a````````ggjcffffcbddammdddm",
"ljiiiiijfhhhhggg````````a``a``````````a`````ggnchfffcbddimmdddd",
"ijiiiiibchhhhgggg``l```````a`````````````````gjcfhfccbdiiamddda",
"ijiiiiijfhhhhggggl`l```````a```````````l`g`gggnfffffccdiiamddmd",
"ijjiiiijfhhhhjgggggl``````````````````glgl`g`gnchhfffcdjiammmmd",
"ijiiiiijfhhhhjkg`gg```l`l````````````ll`glglggnfhhffcbdiilmammd",
"iiiiiijjfhhhhnggllggg``l`g````````l``lggggggggnchhffccdlilammdd",
"ijijiijifhhhhbgggg``gg`l`g`lll`````llggggg`gggnhhhfhccddjilmmdd",
"ijiijijichehhckigggggggggglgllll`l`l`ggg``ggggbhhffhccdddmmmmdm",
"iiigiigifehehcgggggglglglgglgg``l`gggglgggggggcfhhhffbdddmmmddd",
"iijiiigifhhhecggggggigggg`gggllg`gggggggiggkggchhffhfcdddmmdddd",
"iijjgiiifhehecgggggggggggggggggggggggggggggggjhfhhffhcddmmmdddd",
"miiijiijfehhhcnggggggggiilggggigggggggjjnbbbbcbcfcffffddmmmdddm",
"mjiijjjjfeeeecggjggggggjgjgggjjjbcbbbbbbccccccfccfffcbddmmddddm",
"djjjjjjjfheeehnjjjbbcbbcfccbccccccccccbcbbfhhhhhfhfccbdamdddddd",
"bjjjjjjjfeeeefccccbcbbcfbcfcccfhheehhhhhfhhhhfcchhhhhfjmmdmdddd",
"fbbjnbjjfhehhffcfccccfheeehhhhhhhhhcbcfhhhhhhhhehhhhhflmmmddddd",
"ffbjjjjjeheheeehhhhhhhfccbbhhehhhhehheeeehheeehehhhhhfmimdddddd",
"bbbbjjnjfhfhhccfheheheheheeeheeehhheheeehheheeeheeehhbamdlamddd",
"nbjbjjjneheeeeeeeeeeeeeheheeeeeeheheheeeeeeeeehhfcbbjciamddddmm",
"nbcnbjnjfeeeeeeeeeeehefeeeeeheeeeeeehfccbbbjjjiiigjnbbiaaammmmm",
"nbfnnjjjfeeeeeeeeeeeeeeeeeehffccbjjbjjjijijbcfbbbbbcbfiaaaammmm",
"nbcfbcbjfeeeeeeeffcbbjjjjjjiijjjbbbjiiibfiiijffccbbccbbllaaaamm",
"nnnffnjjeeejjjjijjiijbbbcjllibbiijbfjjjjbiiilfhbfffffcfjlallama",
"nbnnfenjeeebbcbjiibbcfijbbjbjbfillibfjbjffjjbfbfhhffheefhhbilaa",
"nnnnneebeeehccfjjjbccfbbffiijbfbjjbffheffcfffffhffbcfehfheeeeeh",
"nnnccceebeehhfccfcccfcfffffbcefhheehhhfffjchchhfeehhjfhfhhnnfee",
"nnnnnffeeeeehfhfchifebeeeeeehcffffhfhheefeeffegfehfeeeeehfcnnnn",
"nnnnnnfeeeeefffffhhhjfhcfhhefeehhfjfhffefheeehhhfenfehhehehnnkk",
"nnnnnnnffeeeefffeeeeeechfbfhjceheheehfffffcffffffhehfffhfhfffkk",
"nkkkknnnnnfeefhhchhlheheeeehhhjfhfjefhfeejehhfhhfhfhffffffhhffk",
"kkknkknnnneeeefeeehhhgcejbhheheehehfhbhjcehefhffhffffffcbchffck",
"kkkkknknnnnceffhheeeeeefhffffhhhfeeeeehhhhhhhfcbhffcccebcbfefek",
"kkkkkkknnnnneeefhihhjfhhhheeeehfhhhhhcnbhfcccccbnnbeefeefefeffk",
"kkkkkkkkkknnfnffeeefffffhffccbhehfccccbnnfeeefeeeeeeeeeeeefnnkk",
"kkkkkkkkkkknfefcfccbchfcjbcbccncfeeeeeeeeeeefeeeefnnkkkkkkkkkkk",
"kkkkkkkkkkknneecfehffffbjbfffefeeeeeeeeeennkkkkkkkkkkkkkkkkkkkk",
"kkkkkkkkkkkknceffbfffeecbffeeeennnkkkkkkkkkkkkkkkkkkkkkkkkkkkkk",
"kkkkkkkkkkkkneeeeeeeeennnkkkkkkkkkkkkkkkkkkkkkkkkkkkkkkkkkkkkkk",
"kkkkkkkkkkkkknnnnkkkkkkkkkkkkkkkkkkkkkkkkkkkkkkkkkkkkkkkkkkkkkk",
"kkkkkkkkkkkkkkkkkkkkkkkkkkkkkkkkkkkkkkkkkkkkkkkkkkkkkkkkkkkkkkk"
};
