#define teleph_mask_width 22
#define teleph_mask_height 15
static unsigned char teleph_mask_bits[] = {
   0xf0, 0xff, 0xc1, 0xf8, 0xff, 0xc3, 0xfc, 0xff, 0xc7, 0xfe, 0xff, 0xcf,
   0xff, 0xff, 0xdf, 0xff, 0xff, 0xdf, 0xff, 0xff, 0xdf, 0xff, 0xff, 0xdf,
   0xf0, 0xff, 0xc1, 0xf0, 0xff, 0xc1, 0xf0, 0xff, 0xc1, 0xf0, 0xff, 0xc1,
   0xf0, 0xff, 0xc1, 0xf0, 0xff, 0xc1, 0xf0, 0xff, 0xc1};
