#define teleph_width 22
#define teleph_height 15
static unsigned char teleph_bits[] = {
   0x00, 0x00, 0xc0, 0xf0, 0xff, 0xc1, 0xf8, 0xff, 0xc3, 0xfc, 0xff, 0xc7,
   0x9e, 0x31, 0xcf, 0x9e, 0x3f, 0xcf, 0x9e, 0x3f, 0xcf, 0xc0, 0x7f, 0xc0,
   0xc0, 0xea, 0xc0, 0xe0, 0xff, 0xc0, 0xe0, 0xea, 0xc0, 0xe0, 0xff, 0xc0,
   0xe0, 0xea, 0xc0, 0xe0, 0xff, 0xc0, 0x00, 0x00, 0xc0};
